<svg width="94" height="46" viewBox="0 0 94 47" fill="none" xmlns="http://www.w3.org/2000/svg">
    <path d="M87.3446 44.1919C87.3446 43.9246 87.1308 43.7108 86.8546 43.7108H85.9102V45.1541H86.1685V44.6819H86.6942L87.0595 45.1541H87.3891L86.9971 44.6552C87.202 44.5839 87.3446 44.4146 87.3446 44.1919ZM86.1774 44.4235V43.9602H86.8635C86.9882 43.9602 87.0951 44.0582 87.0951 44.1919C87.0951 44.3166 86.9971 44.4235 86.8635 44.4235H86.1774Z" fill="white"/>
    <path d="M86.5694 42.7842C85.6606 42.7842 84.9211 43.5237 84.9211 44.4325C84.9211 45.3412 85.6606 46.0807 86.5694 46.0807C87.4782 46.0807 88.2177 45.3412 88.2177 44.4325C88.2177 43.5237 87.4782 42.7842 86.5694 42.7842ZM86.5694 45.8223C85.8032 45.8223 85.1795 45.1987 85.1795 44.4325C85.1795 43.6662 85.8032 43.0426 86.5694 43.0426C87.3356 43.0426 87.9593 43.6662 87.9593 44.4325C87.9593 45.1987 87.3356 45.8223 86.5694 45.8223Z" fill="white"/>
    <path d="M21.3601 37.4028H15.3818C15.2303 37.4028 15.0343 37.5008 14.9452 37.6166L11.2121 42.5347C11.123 42.6505 10.9716 42.6505 10.8825 42.5347L7.15826 37.6166C7.06916 37.5008 6.87316 37.4028 6.7217 37.4028H0.752283C0.60082 37.4028 0.476074 37.5275 0.476074 37.6701V45.7154C0.476074 45.8669 0.60082 45.9827 0.752283 45.9827H5.01996C5.17143 45.9827 5.29616 45.858 5.29616 45.7154V41.3764C5.29616 41.225 5.36744 41.2072 5.45654 41.323L8.83326 45.7778C8.92236 45.9025 9.11837 45.9916 9.26984 45.9916H12.8426C12.994 45.9916 13.1901 45.8936 13.2791 45.7778L16.6559 41.323C16.745 41.2072 16.8163 41.225 16.8163 41.3764V45.7154C16.8163 45.8669 16.941 45.9827 17.0835 45.9827H21.3601C21.5116 45.9827 21.6274 45.858 21.6274 45.7154V37.6701C21.6274 37.5275 21.5116 37.4028 21.3601 37.4028Z" fill="white"/>
    <path d="M62.879 37.4028H47.0467C46.8952 37.4028 46.6992 37.5008 46.6101 37.6166L45.9597 38.463C45.8706 38.5788 45.7993 38.8016 45.7993 38.953V44.4324C45.7993 44.5839 45.8706 44.7977 45.9597 44.9225L46.6101 45.7689C46.6992 45.8847 46.8952 45.9827 47.0467 45.9827H62.879C63.0305 45.9827 63.1463 45.858 63.1463 45.7065V43.5504C63.1463 43.3989 63.0215 43.2831 62.879 43.2831H50.86C50.7085 43.2831 50.5838 43.1584 50.5838 43.0069V40.3697C50.5838 40.2182 50.7085 40.1024 50.86 40.1024H62.879C63.0305 40.1024 63.1463 39.9776 63.1463 39.8351V37.679C63.1552 37.5275 63.0305 37.4028 62.879 37.4028Z" fill="white"/>
    <path d="M77.8111 40.7528C77.6953 40.6548 77.7042 40.5211 77.8378 40.4498L83.3796 37.5275C83.5132 37.4562 83.4954 37.4028 83.3529 37.4028H76.8845C76.733 37.4028 76.5014 37.4562 76.3766 37.5275L70.5141 40.6191C70.3805 40.6904 70.2736 40.6191 70.2736 40.4766V37.679C70.2736 37.5275 70.1488 37.4117 70.0063 37.4117H65.7297C65.5782 37.4117 65.4624 37.5275 65.4624 37.679V45.7332C65.4624 45.8847 65.5872 46.0005 65.7297 46.0005H70.0063C70.1578 46.0005 70.2736 45.8758 70.2736 45.7332V44.7264C70.2736 44.575 70.3805 44.3968 70.5141 44.3255L73.8641 42.5614C73.9978 42.4901 74.1938 42.5169 74.3185 42.606L78.2566 45.8312C78.3724 45.9292 78.5862 46.0005 78.7377 46.0005H83.9498C84.1012 46.0005 84.128 45.9203 84.0122 45.8312L77.8111 40.7528Z" fill="white"/>
    <path d="M38.1368 37.6166C38.0477 37.5008 37.8517 37.4028 37.7002 37.4028H30.1093C29.9578 37.4028 29.7618 37.5008 29.6727 37.6166L23.4894 45.7689C23.4003 45.8847 23.4449 45.9827 23.5964 45.9827H28.3006C28.4521 45.9827 28.6481 45.8847 28.7372 45.7689L29.5836 44.6552C29.6727 44.5393 29.8687 44.4413 30.0202 44.4413H37.7893C37.9408 44.4413 38.1368 44.5393 38.2259 44.6552L39.0634 45.7689C39.1525 45.8847 39.3485 45.9827 39.5 45.9827H44.2042C44.3557 45.9827 44.4002 45.8847 44.3111 45.7689L38.1368 37.6166ZM36.2034 42.0714H31.6417C31.4902 42.0714 31.4457 41.9734 31.5348 41.8576L32.9425 39.9865C33.0316 39.8707 33.2276 39.7727 33.3791 39.7727H34.466C34.6175 39.7727 34.8135 39.8707 34.9026 39.9865L36.3103 41.8576C36.3994 41.9734 36.3549 42.0714 36.2034 42.0714Z" fill="white"/>
    <path d="M76.3321 11.0393H79.6732C79.7623 11.0393 79.8692 10.9681 79.896 10.879L80.5374 8.90995C80.5642 8.82086 80.6711 8.74958 80.7602 8.74958H83.54C83.638 8.74958 83.7805 8.77631 83.8696 8.81195L84.6626 9.1416C84.7517 9.17724 84.8764 9.15942 84.9477 9.08814L86.9791 7.21713C87.0503 7.15477 87.0325 7.06567 86.9434 7.03003L84.5556 6.03216C84.4666 5.99652 84.3864 5.88961 84.3686 5.7916L83.9676 3.22564C83.9498 3.13655 84.0122 3.092 84.1013 3.11873L86.6227 4.17897C86.7118 4.2146 86.7652 4.17006 86.7563 4.08096L86.3732 1.66647C86.3554 1.56846 86.3999 1.44373 86.4623 1.37245L87.0414 0.766598C87.1038 0.695321 87.0949 0.606225 87.0147 0.552768L86.4267 0.205294C86.3465 0.160746 86.2039 0.142927 86.1148 0.178566L82.8361 1.47045C82.747 1.50609 82.6045 1.50609 82.5154 1.46154L81.4908 1.03389C81.4017 0.998247 81.3037 1.04279 81.2769 1.13189L81.1789 1.43482C81.1522 1.52391 81.1878 1.63974 81.2591 1.7021L81.8472 2.12976C81.9273 2.18322 81.9362 2.28123 81.865 2.3525L81.3571 2.86035C81.2947 2.92272 81.1611 2.94944 81.072 2.91381L79.789 2.37923C79.7 2.34359 79.6554 2.23668 79.6821 2.14758L80.1632 0.677502C80.19 0.588406 80.1454 0.481491 80.0563 0.445853L79.5307 0.223113C79.4416 0.187475 79.3436 0.232023 79.3168 0.321119L78.6932 2.23668C78.6664 2.32577 78.6575 2.47724 78.6842 2.56633L79.0852 4.09878C79.1119 4.18788 79.103 4.33934 79.0763 4.42843L77.6775 8.70503C77.6507 8.79413 77.5438 8.87431 77.4547 8.87431H76.6974C76.5994 8.87431 76.5103 8.9545 76.4925 9.0436L76.1628 10.8701C76.1718 10.9681 76.2341 11.0393 76.3321 11.0393Z" fill="white"/>
    <path d="M87.8879 2.59305L88.5116 2.24557C88.5918 2.20103 88.6096 2.10302 88.5561 2.03174L87.9414 1.28334C87.879 1.21206 87.781 1.20315 87.7097 1.27443L87.6652 1.31898C87.5939 1.38135 87.5583 1.51499 87.5761 1.61299L87.7186 2.51286C87.7275 2.60196 87.8077 2.6376 87.8879 2.59305Z" fill="white"/>
    <path d="M87.879 3.56423L88.0483 4.62447C88.0572 4.72247 88.1463 4.82939 88.2354 4.86502L90.0797 5.64016C90.1688 5.6758 90.2668 5.78271 90.3024 5.87181L90.4806 6.32619C90.5163 6.41529 90.6232 6.47766 90.7123 6.47766L90.9529 6.45984C91.0509 6.45093 91.1489 6.37965 91.1756 6.29056L91.7191 4.61556C91.7547 4.52646 91.7102 4.40173 91.6389 4.34827L90.8281 3.71569C90.7568 3.65332 90.6856 3.52859 90.6767 3.43949L90.543 2.11196C90.5341 2.01396 90.4539 1.97832 90.3737 2.02287L88.0038 3.33258C87.9236 3.3593 87.8612 3.47513 87.879 3.56423Z" fill="white"/>
    <path d="M93.8573 3.84932L91.7903 2.64653C91.7101 2.60198 91.6477 2.63762 91.6655 2.73562L91.6923 2.96727C91.7012 3.06528 91.7725 3.19001 91.8437 3.24347L92.9663 4.1077C93.0465 4.16115 93.0822 4.28589 93.0554 4.37498L92.0843 7.35078C92.0576 7.43988 91.9506 7.52006 91.8615 7.52897L88.859 7.70717C88.761 7.71608 88.6452 7.78735 88.6006 7.86754L87.2553 10.0415C87.2107 10.1217 87.2375 10.2197 87.3266 10.2553L87.9591 10.5226C88.0482 10.5582 88.0928 10.6651 88.0661 10.7542L87.3978 12.7856C87.3711 12.8747 87.2731 12.9193 87.184 12.8836L85.6426 12.2332C85.5536 12.1976 85.4021 12.162 85.313 12.162H84.5379C84.4399 12.162 84.3775 12.2421 84.3953 12.3312L84.9299 15.7436C84.9477 15.8416 85.019 15.9574 85.0992 16.002L87.6829 17.6146C87.7631 17.6681 87.7542 17.7126 87.6562 17.7126L85.3665 17.8463C85.2684 17.8552 85.1615 17.9265 85.1259 18.0155L82.9876 22.9336C82.952 23.0227 82.8985 23.1653 82.8807 23.2633L80.6533 32.7609C80.6355 32.85 80.6533 32.9925 80.7068 33.0727L81.2859 33.937C81.3393 34.0172 81.3037 34.0795 81.2146 34.0795H80.386C80.288 34.0795 80.1722 34.0172 80.1187 33.937L79.6732 33.2777C79.6198 33.1975 79.5931 33.0638 79.6109 32.9658L81.7492 23.3078C81.767 23.2187 81.7492 23.0673 81.7046 22.9871L80.6444 20.9201C80.5998 20.8399 80.6177 20.7062 80.68 20.635L83.7984 17.0266C83.8608 16.9553 83.8964 16.8217 83.8875 16.7237L83.2014 12.3669C83.1836 12.2778 83.0945 12.1976 83.0054 12.1976L76.3143 12.153C76.2163 12.153 76.145 12.2332 76.145 12.3223V12.4114C76.145 12.5094 76.0916 12.6342 76.0203 12.7054L64.9635 22.9604C64.8922 23.0227 64.7586 23.0762 64.6695 23.0762H63.2261C63.1281 23.0762 62.9945 23.1296 62.9321 23.192L62.2907 23.78C62.2194 23.8424 62.2015 23.9671 62.255 24.0473L63.6627 26.4796C63.7073 26.5598 63.7251 26.7024 63.6895 26.7915L61.2126 33.9013C61.1859 33.9904 61.1948 34.133 61.2482 34.2132L61.667 34.9348C61.7115 35.015 61.8363 35.0863 61.9254 35.0863H66.5762C66.6742 35.0863 66.7633 35.0061 66.7811 34.917L66.8613 34.5161C66.8791 34.427 66.8435 34.2934 66.7811 34.2221L65.2219 32.6005C65.1595 32.5293 65.1774 32.4491 65.2664 32.4223L71.9397 30.4088C72.0288 30.382 72.0556 30.3019 71.9843 30.2395L70.3093 28.5467C70.2469 28.4843 70.1222 28.4665 70.042 28.511L64.6695 31.7987C64.5893 31.8521 64.4824 31.959 64.4379 32.0392L63.4222 33.9013C63.3776 33.9815 63.2618 34.0528 63.1727 34.0528H62.4599C62.3619 34.0528 62.3174 33.9815 62.3619 33.8924L64.7319 28.5823C64.7675 28.4932 64.8744 28.413 64.9724 28.3952L69.2401 27.6646C69.3292 27.6468 69.4272 27.5577 69.445 27.4686L70.434 22.8891C70.4518 22.8 70.4073 22.6663 70.3449 22.604L69.3738 21.7398C69.3025 21.6774 69.2579 21.5527 69.2847 21.4546L69.454 20.5726C69.4718 20.4746 69.543 20.4568 69.6143 20.5191L71.5299 22.2209C71.6012 22.2832 71.6724 22.408 71.6902 22.506L72.8307 29.3218C72.8485 29.4109 72.8931 29.4198 72.9376 29.3396L74.5057 26.2836C74.5502 26.1945 74.666 26.1411 74.7551 26.1589L76.84 26.5153C76.9291 26.5331 77.036 26.4707 77.0716 26.3816L77.6864 24.9116C77.722 24.8225 77.7398 24.6799 77.7309 24.5819L76.2876 15.7792C76.2698 15.6812 76.3143 15.6723 76.3767 15.7436L79.9049 19.9311C79.9672 20.0024 79.9851 20.136 79.9494 20.2251L78.8446 23.0584C78.809 23.1475 78.809 23.29 78.8536 23.3791L79.9049 25.8916C79.9405 25.9807 79.9494 26.1233 79.9316 26.2213L78.3012 33.8924C78.2833 33.9815 78.3012 34.1241 78.3546 34.2132L78.7734 34.9348C78.8179 35.015 78.9338 35.0863 79.0318 35.0863H83.6647C83.7627 35.0863 83.8607 35.015 83.8964 34.917L84.03 34.4983C84.0567 34.4092 84.03 34.2844 83.9676 34.2132L81.8561 32.0214C81.7937 31.9501 81.7759 31.8254 81.8115 31.7452L84.2706 26.5598C84.3062 26.4707 84.3508 26.3282 84.3686 26.2302L84.8051 22.6753C84.8141 22.5862 84.8764 22.4436 84.9388 22.3723L88.4937 18.1403C88.5561 18.069 88.6006 17.9354 88.6006 17.8374L88.4848 14.0151C88.4848 13.9171 88.4314 13.7746 88.3779 13.7033L88.1195 13.3469C88.0661 13.2667 88.0393 13.1331 88.075 13.044L88.6987 11.1374C88.7254 11.0483 88.7165 10.9057 88.6719 10.8255L88.2799 10.1395C88.2354 10.0593 88.2621 9.96129 88.3512 9.92565L92.5565 8.06355C92.6456 8.02791 92.7347 7.921 92.7703 7.8319L93.9998 4.08988C93.9731 4.00969 93.9375 3.89387 93.8573 3.84932Z" fill="white"/>
    <path d="M83.7895 9.70294H81.4641C81.3661 9.70294 81.2681 9.77422 81.2414 9.86331L80.9117 10.8701C80.8761 10.9592 80.9295 11.0305 81.0275 11.0305H84.0033C84.1013 11.0305 84.1637 10.9503 84.1459 10.8612L83.9855 9.86331C83.9766 9.78313 83.8875 9.70294 83.7895 9.70294Z" fill="white"/>
</svg>