<svg width="19" height="14" viewBox="0 0 19 14" fill="none" xmlns="http://www.w3.org/2000/svg">
    <path d="M9.81746 0.924805H9.91784C10.845 0.928188 15.5426 0.962025 16.8092 1.30265C17.1922 1.4066 17.5411 1.60923 17.8211 1.89029C18.1012 2.17134 18.3026 2.52098 18.4052 2.90425C18.5191 3.33285 18.5992 3.90018 18.6534 4.48555L18.6646 4.60285L18.6894 4.89611L18.6985 5.01341C18.7718 6.0443 18.7808 7.00977 18.7819 7.22069V7.30528C18.7808 7.52409 18.7707 8.55498 18.6894 9.62873L18.6804 9.74716L18.6703 9.86446C18.6139 10.5096 18.5304 11.1503 18.4052 11.6217C18.3029 12.0051 18.1016 12.3549 17.8215 12.636C17.5414 12.9171 17.1923 13.1197 16.8092 13.2233C15.5009 13.5752 10.528 13.6 9.83889 13.6012H9.67873C9.33021 13.6012 7.88877 13.5944 6.37739 13.5425L6.18565 13.5357L6.08753 13.5312L5.89466 13.5233L5.70179 13.5154C4.44983 13.4602 3.25765 13.3711 2.70837 13.2222C2.32544 13.1186 1.97644 12.9163 1.69634 12.6354C1.41624 12.3545 1.21487 12.0049 1.1124 11.6217C0.987208 11.1514 0.903744 10.5096 0.84735 9.86446L0.838327 9.74603L0.829303 9.62873C0.773639 8.86447 0.742794 8.09861 0.736816 7.33235L0.736816 7.19362C0.739072 6.95112 0.748095 6.1131 0.809001 5.18823L0.816897 5.07206L0.82028 5.01341L0.829303 4.89611L0.854117 4.60285L0.865396 4.48555C0.919535 3.90018 0.999615 3.33172 1.11353 2.90425C1.21582 2.52082 1.41712 2.17102 1.69723 1.88992C1.97734 1.60882 2.32643 1.40629 2.7095 1.30265C3.25878 1.15602 4.45096 1.06579 5.70292 1.0094L5.89466 1.0015L6.08865 0.994734L6.18565 0.99135L6.37852 0.983455C7.45194 0.948913 8.52581 0.929737 9.59978 0.925933H9.81746V0.924805ZM7.95531 4.54533V9.97951L12.644 7.26355L7.95531 4.54533Z" fill="#84754E"/>
</svg>