<svg width="19" height="19" viewBox="0 0 19 19" fill="none" xmlns="http://www.w3.org/2000/svg">
    <path fill-rule="evenodd" fill="white" clip-rule="evenodd" d="M5.73127 0.174436C6.6934 0.130143 7.00017 0.1203 9.45102 0.1203C11.9019 0.1203 12.2086 0.130963 13.17 0.174436C14.1313 0.217908 14.7875 0.371291 15.3616 0.593574C15.9628 0.820779 16.5083 1.17594 16.9594 1.63527C17.4188 2.08558 17.7731 2.63021 17.9995 3.23226C18.2226 3.80642 18.3752 4.46261 18.4194 5.42228C18.4637 6.38606 18.4736 6.69282 18.4736 9.14286C18.4736 11.5937 18.4629 11.9005 18.4194 12.8626C18.376 13.8223 18.2226 14.4785 17.9995 15.0526C17.7731 15.6548 17.4182 16.2003 16.9594 16.6513C16.5083 17.1106 15.9628 17.4649 15.3616 17.6913C14.7875 17.9144 14.1313 18.067 13.1716 18.1113C12.2086 18.1556 11.9019 18.1654 9.45102 18.1654C7.00017 18.1654 6.6934 18.1548 5.73127 18.1113C4.7716 18.0678 4.11541 17.9144 3.54125 17.6913C2.93913 17.4649 2.3936 17.11 1.94262 16.6513C1.4836 16.2007 1.12838 15.6554 0.901741 15.0535C0.679458 14.4793 0.526895 13.8231 0.482602 12.8634C0.43831 11.8997 0.428467 11.5929 0.428467 9.14286C0.428467 6.692 0.43913 6.38524 0.482602 5.42392C0.526074 4.46261 0.679458 3.80642 0.901741 3.23226C1.12872 2.63028 1.4842 2.08501 1.94344 1.63445C2.39378 1.17553 2.93877 0.820322 3.54043 0.593574C4.11459 0.371291 4.77078 0.218728 5.73045 0.174436H5.73127ZM13.097 1.7985C12.1455 1.75502 11.86 1.746 9.45102 1.746C7.042 1.746 6.75656 1.75502 5.80509 1.7985C4.92498 1.83869 4.44761 1.98551 4.12936 2.10936C3.70858 2.27341 3.40755 2.46781 3.09176 2.7836C2.79241 3.07482 2.56204 3.42935 2.41753 3.82119C2.29368 4.13944 2.14685 4.61681 2.10666 5.49692C2.06319 6.44839 2.05417 6.73383 2.05417 9.14286C2.05417 11.5519 2.06319 11.8373 2.10666 12.7888C2.14685 13.6689 2.29368 14.1463 2.41753 14.4645C2.56189 14.8558 2.79238 15.2109 3.09176 15.5021C3.38294 15.8015 3.7381 16.032 4.12936 16.1763C4.44761 16.3002 4.92498 16.447 5.80509 16.4872C6.75656 16.5307 7.04118 16.5397 9.45102 16.5397C11.8609 16.5397 12.1455 16.5307 13.097 16.4872C13.9771 16.447 14.4544 16.3002 14.7727 16.1763C15.1935 16.0123 15.4945 15.8179 15.8103 15.5021C16.1097 15.2109 16.3402 14.8558 16.4845 14.4645C16.6084 14.1463 16.7552 13.6689 16.7954 12.7888C16.8389 11.8373 16.8479 11.5519 16.8479 9.14286C16.8479 6.73383 16.8389 6.44839 16.7954 5.49692C16.7552 4.61681 16.6084 4.13944 16.4845 3.82119C16.3205 3.40041 16.1261 3.09938 15.8103 2.7836C15.519 2.48427 15.1645 2.2539 14.7727 2.10936C14.4544 1.98551 13.9771 1.83869 13.097 1.7985ZM8.2986 11.9243C8.9422 12.1922 9.65885 12.2283 10.3262 12.0266C10.9935 11.8248 11.57 11.3976 11.9573 10.818C12.3447 10.2383 12.5187 9.5422 12.4498 8.84848C12.3809 8.15475 12.0733 7.50647 11.5795 7.01435C11.2648 6.69978 10.8841 6.4589 10.4651 6.30907C10.0461 6.15925 9.59902 6.10419 9.15615 6.14787C8.71327 6.19155 8.2856 6.33289 7.9039 6.56169C7.52221 6.7905 7.19599 7.10109 6.94874 7.4711C6.70149 7.84111 6.53935 8.26134 6.474 8.70154C6.40865 9.14174 6.44171 9.59094 6.57081 10.0168C6.6999 10.4427 6.92182 10.8347 7.22058 11.1645C7.51934 11.4943 7.88752 11.7538 8.2986 11.9243ZM6.17173 5.86357C6.60238 5.43293 7.11362 5.09132 7.67628 4.85826C8.23895 4.6252 8.842 4.50524 9.45102 4.50524C10.06 4.50524 10.6631 4.6252 11.2258 4.85826C11.7884 5.09132 12.2997 5.43293 12.7303 5.86357C13.161 6.29421 13.5026 6.80546 13.7356 7.36812C13.9687 7.93078 14.0886 8.53384 14.0886 9.14286C14.0886 9.75188 13.9687 10.3549 13.7356 10.9176C13.5026 11.4803 13.161 11.9915 12.7303 12.4221C11.8606 13.2919 10.681 13.7805 9.45102 13.7805C8.22105 13.7805 7.04146 13.2919 6.17173 12.4221C5.30201 11.5524 4.81341 10.3728 4.81341 9.14286C4.81341 7.91288 5.30201 6.73329 6.17173 5.86357ZM15.1172 5.1959C15.2239 5.09523 15.3093 4.97417 15.3684 4.8399C15.4275 4.70562 15.4591 4.56085 15.4612 4.41416C15.4633 4.26747 15.436 4.12184 15.3809 3.9859C15.3257 3.84996 15.2439 3.72646 15.1401 3.62272C15.0364 3.51899 14.9129 3.43712 14.7769 3.38197C14.641 3.32682 14.4954 3.2995 14.3487 3.30164C14.202 3.30378 14.0572 3.33533 13.923 3.39442C13.7887 3.45351 13.6676 3.53894 13.5669 3.64566C13.3712 3.8532 13.264 4.12888 13.2681 4.41416C13.2723 4.69944 13.3875 4.97188 13.5892 5.17362C13.791 5.37537 14.0634 5.49055 14.3487 5.49471C14.634 5.49887 14.9096 5.39168 15.1172 5.1959Z"/>
</svg>