<svg viewBox="0 0 407 96" fill="none" xmlns="http://www.w3.org/2000/svg">
    <path d="M370.556 36.9019H36.4436V0H370.556V36.9019ZM37.7887 35.5568H369.219V1.34511H37.7887V35.5568Z" fill="black"/>
    <path d="M397.458 95.0375H9.54126V41.7874H397.458V95.0375ZM10.8864 93.6924H396.121V43.1251H10.8864V93.6924Z" fill="black"/>
    <path d="M0 51.4838H382.655C395.02 51.4838 405.041 41.462 405.041 29.0973V25.498H22.3865C10.0218 25.498 0 35.5199 0 47.8846V51.4838Z" fill="white"/>
    <path d="M1.9585 53.8269H384.613C396.978 53.8269 407 43.805 407 31.4404V27.8411H24.345C11.9803 27.8411 1.9585 37.8629 1.9585 50.2276V53.8269Z" fill="#84754E"/>
    <path d="M102.295 38.3652L100.078 38.853L99.2649 35.4902L103.322 34.3816H106.759V48.084H102.288V38.3652H102.295Z" fill="white"/>
    <path d="M108.651 41.3213V41.2843C108.651 37.5372 111.097 34.1892 115.221 34.1892C119.338 34.1892 121.747 37.4929 121.747 41.24V41.2769C121.747 45.024 119.301 48.372 115.177 48.372C111.061 48.372 108.651 45.0684 108.651 41.3213ZM117.239 41.3213V41.2843C117.239 39.4218 116.426 38.1359 115.177 38.1359C113.928 38.1359 113.159 39.3775 113.159 41.2474V41.2843C113.159 43.1468 113.972 44.4328 115.221 44.4328C116.471 44.4328 117.239 43.1837 117.239 41.3213Z" fill="white"/>
    <path d="M123.314 41.3213V41.2843C123.314 37.5372 125.761 34.1892 129.885 34.1892C134.001 34.1892 136.411 37.4929 136.411 41.24V41.2769C136.411 45.024 133.964 48.372 129.84 48.372C125.724 48.372 123.314 45.0684 123.314 41.3213ZM131.902 41.3213V41.2843C131.902 39.4218 131.089 38.1359 129.84 38.1359C128.591 38.1359 127.823 39.3775 127.823 41.2474V41.2843C127.823 43.1468 128.636 44.4328 129.885 44.4328C131.134 44.4328 131.902 43.1837 131.902 41.3213Z" fill="white"/>
    <path d="M149.271 34.3816H153.779L159.514 48.084H154.577L153.86 46.2585H149.101L148.398 48.084H143.543L149.271 34.3816ZM152.729 43.0287L151.488 39.7251L150.246 43.0287H152.729Z" fill="white"/>
    <path d="M160.556 34.4777H164.813L169.654 40.4789V34.4777H174.162V48.0766H170.12L165.072 41.8019V48.0766H160.564V34.4777H160.556ZM167.245 33.273C166.639 33.0956 166.173 32.9404 165.922 32.9404C165.434 32.9404 165.242 33.1917 165.005 33.7977L163.039 33.3099C163.431 31.0779 164.163 30.2206 165.486 30.2206C166.107 30.2206 166.846 30.4349 167.548 30.6493C168.146 30.8266 168.619 30.9818 168.871 30.9818C169.359 30.9818 169.551 30.7306 169.787 30.1245L171.753 30.6123C171.361 32.8443 170.622 33.7016 169.307 33.7016C168.679 33.7016 167.939 33.4873 167.245 33.273Z" fill="white"/>
    <path d="M175.885 41.3213V41.2843C175.885 37.3377 179.129 34.1892 183.327 34.1892C187.525 34.1892 190.733 37.2785 190.733 41.24V41.2769C190.733 45.2236 187.488 48.372 183.29 48.372C179.092 48.372 175.885 45.2827 175.885 41.3213ZM186.143 41.3213V41.2843C186.143 39.6731 185.034 38.2172 183.283 38.2172C181.553 38.2172 180.467 39.6583 180.467 41.2474V41.2843C180.467 42.8955 181.575 44.3515 183.32 44.3515C185.056 44.3515 186.143 42.9103 186.143 41.3213Z" fill="white"/>
    <path d="M191.235 46.044L193.667 43.1469C195.145 44.2924 196.815 44.7433 198.426 44.7433C199.261 44.7433 199.594 44.5289 199.594 44.1594V44.1224C199.594 43.7307 199.165 43.5164 197.709 43.2282C194.657 42.6073 191.974 41.7352 191.974 38.8528V38.8159C191.974 36.2291 194.014 34.2336 197.746 34.2336C200.392 34.2336 202.314 34.8545 203.888 36.0961L201.671 39.1633C200.37 38.232 198.855 37.8255 197.591 37.8255C196.911 37.8255 196.601 38.062 196.601 38.3872V38.4242C196.601 38.7937 196.948 39.045 198.411 39.2963C201.893 39.9171 204.221 40.9666 204.221 43.6864V43.7233C204.221 46.5762 201.87 48.3278 198.219 48.3278C195.433 48.3352 192.965 47.5739 191.235 46.044Z" fill="white"/>
    <path d="M212.062 34.4775H217.273C222.675 34.4775 225.373 37.1234 225.373 41.1588V41.1957C225.373 45.2384 222.616 48.0765 217.118 48.0765H212.062V34.4775ZM216.608 38.4464V44.1224H217.369C219.468 44.1224 220.791 43.2651 220.791 41.3066V41.2696C220.791 39.3037 219.468 38.4537 217.369 38.4537H216.608V38.4464Z" fill="white"/>
    <path d="M227.095 34.4775H238.698V38.2099H231.566V39.5919H238.211V42.8734H231.566V44.3516H238.795V48.0839H227.095V34.4775Z" fill="white"/>
    <path d="M246.813 34.4775H251.558L254.47 39.2593L257.382 34.4775H262.127V48.0765H257.604V41.3361L254.478 46.1771H254.396L251.27 41.3361V48.0765H246.821V34.4775H246.813Z" fill="white"/>
    <path d="M268.904 34.3816H273.413L279.148 48.084H274.211L273.494 46.2585H268.734L268.032 48.084H263.177L268.904 34.3816ZM272.363 43.0287L271.122 39.7251L269.88 43.0287H272.363Z" fill="white"/>
    <path d="M279.007 41.3213V41.2843C279.007 37.2268 282.178 34.1892 286.235 34.1892C289.251 34.1892 291.246 35.6452 292.392 37.7294L288.645 39.9244C288.12 38.9341 287.418 38.2689 286.176 38.2689C284.639 38.2689 283.634 39.6066 283.634 41.24V41.2769C283.634 43.0433 284.683 44.2923 286.176 44.2923C287.477 44.2923 288.179 43.5902 288.741 42.5851L292.488 44.7062C291.342 46.7239 289.421 48.3794 286.058 48.3794C282.289 48.372 279.007 45.534 279.007 41.3213Z" fill="white"/>
    <path d="M293.848 34.4775H298.393V39.5697L302.259 34.4775H307.543L302.798 40.3827L307.639 48.0765H302.222L299.561 43.7603L298.393 45.1793V48.0765H293.848V34.4775Z" fill="white"/>
    <path d="M26.8875 67.8175H25.1285V70.9734H22.8152V60.449H27.1166C29.6294 60.449 31.1519 61.9419 31.1519 64.0926V64.1222C31.1445 66.5537 29.2451 67.8175 26.8875 67.8175ZM28.7943 64.1369C28.7943 63.1022 28.07 62.5406 26.917 62.5406H25.1285V65.7629H26.9614C28.1217 65.7629 28.7943 65.0682 28.7943 64.1665V64.1369Z" fill="black"/>
    <path d="M39.2523 70.9808L36.9981 67.6106H35.18V70.9808H32.8667V60.449H37.6781C40.1613 60.449 41.6469 61.7571 41.6469 63.9226V63.9522C41.6469 65.652 40.7304 66.7237 39.3927 67.2189L41.9647 70.9808H39.2523ZM39.304 64.0483C39.304 63.0579 38.6093 62.5406 37.4859 62.5406H35.18V65.5634H37.5229C38.6536 65.5634 39.2966 64.9647 39.2966 64.0778V64.0483H39.304Z" fill="black"/>
    <path d="M51.5801 70.9804L50.6193 68.6154H46.1701L45.2093 70.9804H42.8442L47.36 60.3748H49.4959L54.0116 70.9804H51.5801ZM48.3873 63.1537L46.9904 66.5682H49.7915L48.3873 63.1537Z" fill="black"/>
    <path d="M59.8872 71.1581C56.7905 71.1581 54.4846 68.7635 54.4846 65.7407V65.7111C54.4846 62.7179 56.7388 60.2642 59.9759 60.2642C61.964 60.2642 63.1465 60.9293 64.1295 61.8901L62.6514 63.59C61.8384 62.8509 61.0106 62.4001 59.9611 62.4001C58.1874 62.4001 56.9088 63.8782 56.9088 65.6816V65.7111C56.9088 67.5145 58.1578 69.0222 59.9611 69.0222C61.1658 69.0222 61.9049 68.5418 62.7327 67.7879L64.2108 69.2808C63.1244 70.4412 61.9197 71.1581 59.8872 71.1581Z" fill="black"/>
    <path d="M70.8696 71.1581C67.6176 71.1581 65.2896 68.7339 65.2896 65.7407V65.7111C65.2896 62.7179 67.6546 60.2642 70.8991 60.2642C74.151 60.2642 76.4791 62.6883 76.4791 65.6816V65.7111C76.4791 68.7118 74.1215 71.1581 70.8696 71.1581ZM74.0623 65.7111C74.0623 63.9078 72.7394 62.4001 70.8696 62.4001C69.0071 62.4001 67.7137 63.8782 67.7137 65.6816V65.7111C67.7137 67.5145 69.0367 69.0222 70.8991 69.0222C72.7616 69.0222 74.0623 67.5514 74.0623 65.7407V65.7111Z" fill="black"/>
    <path d="M87.1664 70.9808H83.0571V60.449H87.1664C90.4774 60.449 92.7612 62.7179 92.7612 65.6816V65.7112C92.7685 68.6749 90.4774 70.9808 87.1664 70.9808ZM90.3444 65.7112C90.3444 63.8487 89.0658 62.5406 87.1738 62.5406H85.3852V68.8892H87.1738C89.0732 68.8892 90.3444 67.6106 90.3444 65.7481V65.7112Z" fill="black"/>
    <path d="M94.9341 70.9808V60.449H97.2474V70.9808H94.9341Z" fill="black"/>
    <path d="M103.995 70.9808H99.8857V60.449H103.995C107.306 60.449 109.59 62.7179 109.59 65.6816V65.7112C109.59 68.6749 107.306 70.9808 103.995 70.9808ZM107.166 65.7112C107.166 63.8487 105.887 62.5406 103.995 62.5406H102.206V68.8892H103.995C105.894 68.8892 107.166 67.6106 107.166 65.7481V65.7112Z" fill="black"/>
    <path d="M118.74 70.9804L117.779 68.6154H113.329L112.369 70.9804H110.004L114.519 60.3748H116.655L121.171 70.9804H118.74ZM115.554 63.1537L114.157 66.5682H116.958L115.554 63.1537Z" fill="black"/>
    <path d="M127.047 71.1581C123.95 71.1581 121.644 68.7635 121.644 65.7407V65.7111C121.644 62.7179 123.898 60.2642 127.135 60.2642C129.123 60.2642 130.306 60.9293 131.289 61.8901L129.811 63.59C128.998 62.8509 128.17 62.4001 127.121 62.4001C125.347 62.4001 124.068 63.8782 124.068 65.6816V65.7111C124.068 67.5145 125.317 69.0222 127.121 69.0222C128.325 69.0222 129.064 68.5418 129.892 67.7879L131.37 69.2808C130.284 70.4412 129.079 71.1581 127.047 71.1581Z" fill="black"/>
    <path d="M138.029 71.1581C134.778 71.1581 132.449 68.7339 132.449 65.7407V65.7111C132.449 62.7179 134.814 60.2642 138.059 60.2642C141.311 60.2642 143.639 62.6883 143.639 65.6816V65.7111C143.646 68.7118 141.281 71.1581 138.029 71.1581ZM141.222 65.7111C141.222 63.9078 139.899 62.4001 138.029 62.4001C136.167 62.4001 134.874 63.8782 134.874 65.6816V65.7111C134.874 67.5145 136.197 69.0222 138.059 69.0222C139.921 69.0222 141.222 67.5514 141.222 65.7407V65.7111Z" fill="black"/>
    <path d="M145.708 70.9808V60.449H148.022V68.8744H153.269V70.9808H145.708Z" fill="black"/>
    <path d="M163.646 70.9808H159.536V60.449H163.646C166.957 60.449 169.24 62.7179 169.24 65.6816V65.7112C169.24 68.6749 166.957 70.9808 163.646 70.9808ZM166.816 65.7112C166.816 63.8487 165.538 62.5406 163.646 62.5406H161.857V68.8892H163.646C165.545 68.8892 166.816 67.6106 166.816 65.7481V65.7112Z" fill="black"/>
    <path d="M171.413 70.9808V60.449H173.727V70.9808H171.413Z" fill="black"/>
    <path d="M180.105 71.1284C178.508 71.1284 176.897 70.5741 175.633 69.4434L177.001 67.8026C177.947 68.586 178.944 69.0812 180.142 69.0812C181.088 69.0812 181.664 68.7043 181.664 68.0909V68.0613C181.664 67.4774 181.302 67.1744 179.543 66.7236C177.422 66.184 176.055 65.5928 176.055 63.5012V63.4716C176.055 61.5648 177.592 60.301 179.743 60.301C181.28 60.301 182.588 60.7814 183.652 61.6388L182.448 63.383C181.516 62.7326 180.6 62.3483 179.706 62.3483C178.811 62.3483 178.353 62.7547 178.353 63.2647V63.2943C178.353 63.989 178.804 64.2107 180.622 64.6763C182.758 65.2306 183.963 65.9993 183.963 67.8396V67.8691C183.97 69.9607 182.381 71.1284 180.105 71.1284Z" fill="black"/>
    <path d="M190.533 62.5849V70.9808H188.22V62.5849H185.02V60.449H193.748V62.5849H190.533Z" fill="black"/>
    <path d="M201.907 70.9808L199.653 67.6106H197.835V70.9808H195.522V60.449H200.333C202.816 60.449 204.302 61.7571 204.302 63.9226V63.9522C204.302 65.652 203.385 66.7237 202.048 67.2189L204.62 70.9808H201.907ZM201.959 64.0483C201.959 63.0579 201.264 62.5406 200.141 62.5406H197.842V65.5634H200.185C201.316 65.5634 201.959 64.9647 201.959 64.0778V64.0483Z" fill="black"/>
    <path d="M206.505 70.9808V60.449H208.818V70.9808H206.505Z" fill="black"/>
    <path d="M216.467 70.9808H211.456V60.449H216.349C218.499 60.449 219.822 61.5206 219.822 63.1688V63.1983C219.822 64.3882 219.194 65.046 218.44 65.4673C219.66 65.9329 220.414 66.6424 220.414 68.054V68.0836C220.406 70.02 218.839 70.9808 216.467 70.9808ZM217.516 63.5605C217.516 62.8657 216.977 62.474 215.994 62.474H213.71V64.6986H215.846C216.866 64.6986 217.516 64.3661 217.516 63.5826V63.5605ZM218.1 67.7732C218.1 67.0637 217.576 66.6276 216.386 66.6276H213.71V68.9409H216.467C217.487 68.9409 218.108 68.5788 218.108 67.7954V67.7732H218.1Z" fill="black"/>
    <path d="M226.711 71.1434C223.88 71.1434 222.151 69.5617 222.151 66.465V60.449H224.464V66.4059C224.464 68.1205 225.321 69.0074 226.733 69.0074C228.145 69.0074 229.002 68.1501 229.002 66.4798V60.449H231.33V66.3911C231.33 69.5839 229.541 71.1434 226.711 71.1434Z" fill="black"/>
    <path d="M233.798 70.9808V60.449H236.112V70.9808H233.798Z" fill="black"/>
    <path d="M242.859 70.9808H238.75V60.449H242.859C246.171 60.449 248.454 62.7179 248.454 65.6816V65.7112C248.454 68.6749 246.171 70.9808 242.859 70.9808ZM246.03 65.7112C246.03 63.8487 244.752 62.5406 242.859 62.5406H241.071V68.8892H242.859C244.759 68.8892 246.03 67.6106 246.03 65.7481V65.7112Z" fill="black"/>
    <path d="M255.631 71.1581C252.379 71.1581 250.051 68.7339 250.051 65.7407V65.7111C250.051 62.7179 252.416 60.2642 255.66 60.2642C258.912 60.2642 261.24 62.6883 261.24 65.6816V65.7111C261.248 68.7118 258.882 71.1581 255.631 71.1581ZM258.823 65.7111C258.823 63.9078 257.5 62.4001 255.631 62.4001C253.768 62.4001 252.475 63.8782 252.475 65.6816V65.7111C252.475 67.5145 253.798 69.0222 255.66 69.0222C257.523 69.0222 258.823 67.5514 258.823 65.7407V65.7111Z" fill="black"/>
    <path d="M269.702 70.9808L267.448 67.6106H265.63V70.9808H263.317V60.449H268.128C270.612 60.449 272.097 61.7571 272.097 63.9226V63.9522C272.097 65.652 271.181 66.7237 269.843 67.2189L272.415 70.9808H269.702ZM269.747 64.0483C269.747 63.0579 269.052 62.5406 267.929 62.5406H265.63V65.5634H267.973C269.104 65.5634 269.747 64.9647 269.747 64.0778V64.0483Z" fill="black"/>
    <path d="M286.539 70.9804L285.578 68.6154H281.129L280.168 70.9804H277.803L282.318 60.3748H284.454L288.97 70.9804H286.539ZM283.353 63.1537L281.956 66.5682H284.757L283.353 63.1537Z" fill="black"/>
    <path d="M294.609 71.1434C291.779 71.1434 290.049 69.5617 290.049 66.465V60.449H292.363V66.4059C292.363 68.1205 293.22 69.0074 294.632 69.0074C296.043 69.0074 296.901 68.1501 296.901 66.4798V60.449H299.214V66.3911C299.229 69.5839 297.44 71.1434 294.609 71.1434Z" fill="black"/>
    <path d="M306.36 62.5849V70.9808H304.047V62.5849H300.847V60.449H309.575V62.5849H306.36Z" fill="black"/>
    <path d="M316.005 71.1581C312.753 71.1581 310.425 68.7339 310.425 65.7407V65.7111C310.425 62.7179 312.79 60.2642 316.035 60.2642C319.287 60.2642 321.615 62.6883 321.615 65.6816V65.7111C321.615 68.7118 319.257 71.1581 316.005 71.1581ZM319.198 65.7111C319.198 63.9078 317.875 62.4001 316.005 62.4001C314.143 62.4001 312.849 63.8782 312.849 65.6816V65.7111C312.849 67.5145 314.172 69.0222 316.035 69.0222C317.897 69.0222 319.198 67.5514 319.198 65.7407V65.7111Z" fill="black"/>
    <path d="M330.077 70.9808L327.823 67.6106H326.005V70.9808H323.692V60.449H328.503C330.987 60.449 332.472 61.7571 332.472 63.9226V63.9522C332.472 65.652 331.556 66.7237 330.218 67.2189L332.79 70.9808H330.077ZM330.122 64.0483C330.122 63.0579 329.427 62.5406 328.304 62.5406H326.005V65.5634H328.348C329.479 65.5634 330.122 64.9647 330.122 64.0778V64.0483Z" fill="black"/>
    <path d="M334.667 70.9808V60.449H336.98V70.9808H334.667Z" fill="black"/>
    <path d="M339.301 70.9808V69.2218L345.095 62.4814H339.486V60.449H348.074V62.208L342.279 68.9483H348.074V70.9808H339.301Z" fill="black"/>
    <path d="M358.11 70.9804L357.15 68.6154H352.7L351.74 70.9804H349.375L353.89 60.3748H356.026L360.542 70.9804H358.11ZM354.925 63.1537L353.528 66.5682H356.329L354.925 63.1537Z" fill="black"/>
    <path d="M366.27 70.9808H362.16V60.449H366.27C369.581 60.449 371.864 62.7179 371.864 65.6816V65.7112C371.864 68.6749 369.581 70.9808 366.27 70.9808ZM369.44 65.7112C369.44 63.8487 368.162 62.5406 366.27 62.5406H364.481V68.8892H366.27C368.169 68.8892 369.44 67.6106 369.44 65.7481V65.7112Z" fill="black"/>
    <path d="M379.041 71.1581C375.789 71.1581 373.461 68.7339 373.461 65.7407V65.7111C373.461 62.7179 375.826 60.2642 379.071 60.2642C382.322 60.2642 384.651 62.6883 384.651 65.6816V65.7111C384.658 68.7118 382.293 71.1581 379.041 71.1581ZM382.234 65.7111C382.234 63.9078 380.911 62.4001 379.041 62.4001C377.178 62.4001 375.885 63.8782 375.885 65.6816V65.7111C375.885 67.5145 377.208 69.0222 379.071 69.0222C380.933 69.0222 382.234 67.5514 382.234 65.7407V65.7111Z" fill="black"/>
    <path d="M42.7258 76.2134H50.3383V77.2998H43.9157V80.8991H49.6657V81.9855H43.9157V85.6735H50.4122V86.7599H42.7258V76.2134Z" fill="black"/>
    <path d="M61.3802 76.2134L57.5 81.3721L61.5354 86.7452H60.1237L56.7536 82.1999L53.3834 86.7452H52.0161L56.0515 81.3721L52.1713 76.2134H53.5682L56.7905 80.5443L60.0129 76.2134H61.3802Z" fill="black"/>
    <path d="M62.4961 81.5124V81.4829C62.4961 78.5044 64.7355 76.0359 67.8248 76.0359C69.7316 76.0359 70.892 76.7011 71.9341 77.7062L71.1211 78.5783C70.2194 77.7358 69.2586 77.1371 67.81 77.1371C65.4746 77.1371 63.7303 79.0291 63.7303 81.4533V81.4829C63.7303 83.9218 65.4746 85.8286 67.81 85.8286C69.2512 85.8286 70.2046 85.2743 71.2098 84.3061L71.9932 85.0748C70.9067 86.1908 69.6799 86.9224 67.7805 86.9224C64.7429 86.9224 62.4961 84.5352 62.4961 81.5124Z" fill="black"/>
    <path d="M74.1289 76.2134H75.3188V85.6439H81.2462V86.7452H74.1289V76.2134Z" fill="black"/>
    <path d="M82.9832 82.3404V76.2134H84.1731V82.2591C84.1731 84.5428 85.363 85.8066 87.3954 85.8066C89.3392 85.8066 90.5734 84.6315 90.5734 82.333V76.2061H91.7633V82.2369C91.7633 85.3188 90.0043 86.9004 87.3732 86.9004C84.7569 86.9078 82.9832 85.3188 82.9832 82.3404Z" fill="black"/>
    <path d="M93.877 85.2078L94.616 84.3357C95.7172 85.3408 96.7667 85.8286 98.2301 85.8286C99.6565 85.8286 100.573 85.0747 100.573 84.04V84.0105C100.573 83.0349 100.048 82.488 97.8384 82.0076C95.4142 81.4828 94.3056 80.6994 94.3056 78.97V78.9404C94.3056 77.2997 95.7616 76.0654 97.7645 76.0654C99.3165 76.0654 100.381 76.5015 101.467 77.3588L100.773 78.2753C99.7969 77.4771 98.814 77.1297 97.7349 77.1297C96.3529 77.1297 95.4955 77.8688 95.4955 78.8296V78.8591C95.4955 79.8495 96.0203 80.426 98.3557 80.9064C100.706 81.4311 101.785 82.2736 101.785 83.8848V83.9144C101.785 85.7177 100.277 86.8928 98.1858 86.8928C96.4933 86.8928 95.1408 86.3533 93.877 85.2078Z" fill="black"/>
    <path d="M104.305 76.2134H105.495V86.7452H104.305V76.2134Z" fill="black"/>
    <path d="M107.676 76.2134H108.998L112.746 85.2818L116.507 76.2134H117.786L113.256 86.8191H112.206L107.676 76.2134Z" fill="black"/>
    <path d="M118.777 81.5124V81.4829C118.777 78.5783 120.957 76.0359 124.164 76.0359C127.372 76.0359 129.523 78.5487 129.523 81.4533V81.4829C129.523 84.3874 127.342 86.9298 124.135 86.9298C120.935 86.9224 118.777 84.4096 118.777 81.5124ZM128.288 81.5124V81.4829C128.288 79.0883 126.544 77.1371 124.135 77.1371C121.726 77.1371 120.011 79.0661 120.011 81.4533V81.4829C120.011 83.8775 121.755 85.8286 124.164 85.8286C126.574 85.8286 128.288 83.8996 128.288 81.5124Z" fill="black"/>
    <path d="M136.551 76.2134H140.21C143.521 76.2134 145.804 78.4823 145.804 81.446V81.4756C145.804 84.4393 143.521 86.7378 140.21 86.7378H136.551V76.2134ZM137.741 77.3146V85.6513H140.21C142.87 85.6513 144.57 83.8628 144.57 81.5125V81.483C144.57 79.1475 142.87 77.3146 140.21 77.3146H137.741Z" fill="black"/>
    <path d="M148.317 76.2134H155.93V77.2998H149.507V80.8991H155.257V81.9855H149.507V85.6735H156.004V86.7599H148.317V76.2134Z" fill="black"/>
    <path d="M162.914 76.2134H164.104V85.6439H170.031V86.7452H162.914V76.2134Z" fill="black"/>
    <path d="M176.069 76.1394H177.185L181.982 86.7451H180.703L179.469 83.9588H173.734L172.485 86.7451H171.265L176.069 76.1394ZM179.003 82.8945L176.609 77.5215L174.2 82.8945H179.003Z" fill="black"/>
    <path d="M188.574 76.2134H189.779L193.615 81.9634L197.451 76.2134H198.655V86.7452H197.466V78.2163L193.63 83.8554H193.571L189.735 78.231V86.7452H188.574V76.2134Z" fill="black"/>
    <path d="M205.529 76.1394H206.645L211.441 86.7451H210.163L208.929 83.9588H203.193L201.944 86.7451H200.725L205.529 76.1394ZM208.463 82.8945L206.068 77.5215L203.659 82.8945H208.463Z" fill="black"/>
    <path d="M213.526 76.2134H218.056C219.364 76.2134 220.384 76.6051 221.049 77.2629C221.574 77.7876 221.862 78.4971 221.862 79.3397V79.3692C221.862 81.1134 220.658 82.1555 219.002 82.4364L222.239 86.7378H220.783L217.731 82.6433H214.723V86.7378H213.533V76.2134H213.526ZM217.945 81.5864C219.512 81.5864 220.65 80.7735 220.65 79.421V79.3914C220.65 78.0832 219.66 77.3146 217.96 77.3146H214.708V81.5864H217.945Z" fill="black"/>
    <path d="M223.939 81.5124V81.4829C223.939 78.5044 226.178 76.0359 229.268 76.0359C231.174 76.0359 232.335 76.7011 233.377 77.7062L232.564 78.5783C231.662 77.7358 230.701 77.1371 229.253 77.1371C226.917 77.1371 225.173 79.0291 225.173 81.4533V81.4829C225.173 83.9218 226.917 85.8286 229.253 85.8286C230.694 85.8286 231.648 85.2743 232.653 84.3061L233.436 85.0748C232.35 86.1908 231.123 86.9224 229.223 86.9224C226.178 86.9224 223.939 84.5352 223.939 81.5124Z" fill="black"/>
    <path d="M239.408 76.1394H240.524L245.321 86.7451H244.042L242.808 83.9588H237.073L235.823 86.7451H234.604L239.408 76.1394ZM242.342 82.8945L239.948 77.5215L237.538 82.8945H242.342Z" fill="black"/>
    <path d="M251.913 76.2134H259.526V77.2998H253.103V80.8991H258.853V81.9855H253.103V85.6735H259.599V86.7599H251.913V76.2134Z" fill="black"/>
    <path d="M261.994 76.2134H263.11L269.747 84.6536V76.2134H270.907V86.7452H269.961L263.162 78.1128V86.7452H262.001V76.2134H261.994Z" fill="black"/>
    <path d="M277.928 81.5124V81.4829C277.928 78.5044 280.168 76.0359 283.257 76.0359C285.164 76.0359 286.324 76.7011 287.366 77.7062L286.553 78.5783C285.652 77.7358 284.691 77.1371 283.242 77.1371C280.907 77.1371 279.162 79.0291 279.162 81.4533V81.4829C279.162 83.9218 280.907 85.8286 283.242 85.8286C284.683 85.8286 285.637 85.2743 286.642 84.3061L287.425 85.0748C286.339 86.1908 285.112 86.9224 283.213 86.9224C280.168 86.9224 277.928 84.5352 277.928 81.5124Z" fill="black"/>
    <path d="M288.793 81.5124V81.4829C288.793 78.5783 290.973 76.0359 294.181 76.0359C297.388 76.0359 299.539 78.5487 299.539 81.4533V81.4829C299.539 84.3874 297.359 86.9298 294.151 86.9298C290.943 86.9224 288.793 84.4096 288.793 81.5124ZM298.305 81.5124V81.4829C298.305 79.0883 296.56 77.1371 294.151 77.1371C291.742 77.1371 290.027 79.0661 290.027 81.4533V81.4829C290.027 83.8775 291.771 85.8286 294.181 85.8286C296.59 85.8286 298.305 83.8996 298.305 81.5124Z" fill="black"/>
    <path d="M302.052 76.2134H303.242V85.6439H309.169V86.7452H302.052V76.2134Z" fill="black"/>
    <path d="M310.13 81.5124V81.4829C310.13 78.5783 312.31 76.0359 315.518 76.0359C318.725 76.0359 320.876 78.5487 320.876 81.4533V81.4829C320.876 84.3874 318.696 86.9298 315.488 86.9298C312.281 86.9224 310.13 84.4096 310.13 81.5124ZM319.642 81.5124V81.4829C319.642 79.0883 317.898 77.1371 315.488 77.1371C313.079 77.1371 311.364 79.0661 311.364 81.4533V81.4829C311.364 83.8775 313.108 85.8286 315.518 85.8286C317.927 85.8286 319.642 83.8996 319.642 81.5124Z" fill="black"/>
    <path d="M323.389 76.2134H324.593L328.429 81.9634L332.265 76.2134H333.47V86.7452H332.28V78.2163L328.444 83.8554H328.385L324.549 78.231V86.7452H323.389V76.2134Z" fill="black"/>
    <path d="M336.448 76.2134H340.934C342.139 76.2134 343.085 76.5607 343.684 77.1446C344.135 77.6102 344.364 78.1793 344.364 78.8297V78.8593C344.364 80.2265 343.521 80.9361 342.693 81.2982C343.942 81.6603 344.948 82.4142 344.948 83.8406V83.8702C344.948 85.6735 343.425 86.7452 341.127 86.7452H336.448V76.2134ZM343.159 78.9997C343.159 77.965 342.331 77.285 340.824 77.285H337.616V80.9139H340.727C342.169 80.9139 343.152 80.2783 343.152 79.0366V78.9997H343.159ZM343.75 83.7667C343.75 82.6211 342.804 81.9634 340.949 81.9634H337.623V85.6809H341.156C342.767 85.6809 343.743 84.9862 343.743 83.8037V83.7667H343.75Z" fill="black"/>
    <path d="M347.423 76.2134H348.613V86.7452H347.423V76.2134Z" fill="black"/>
    <path d="M355.59 76.1394H356.706L361.503 86.7451H360.224L358.99 83.9588H353.255L352.006 86.7451H350.786L355.59 76.1394ZM358.524 82.8945L356.13 77.5215L353.72 82.8945H358.524Z" fill="black"/>
    <path d="M363.24 85.1636H364.622V86.7452H363.24V85.1636Z" fill="black"/>
    <path d="M70.2859 13.5251V13.4881C70.2859 9.6819 73.1461 6.53345 77.0854 6.53345C79.5243 6.53345 81.0024 7.37599 82.3328 8.66937L81.2981 9.78537C80.1451 8.70632 78.9183 7.93769 77.0706 7.93769C74.0921 7.93769 71.8601 10.3618 71.8601 13.4512V13.4881C71.8601 16.5996 74.0921 19.0386 77.0706 19.0386C78.9183 19.0386 80.123 18.329 81.4163 17.0948L82.4141 18.0778C81.032 19.4968 79.4578 20.4428 77.0336 20.4428C73.1535 20.4428 70.2859 17.3904 70.2859 13.5251Z" fill="black"/>
    <path d="M85.1411 6.76245H94.8673V8.14452H86.6636V12.7342H94.0026V14.1162H86.6636V18.8241H94.9634V20.2062H85.1411V6.76245Z" fill="black"/>
    <path d="M98.0159 6.76245H99.531V18.8093H107.106V20.2136H98.0159V6.76245Z" fill="black"/>
    <path d="M109.834 6.76245H119.56V8.14452H111.356V12.7342H118.695V14.1162H111.356V18.8241H119.656V20.2062H109.834V6.76245Z" fill="black"/>
    <path d="M122.708 6.76245H128.436C129.973 6.76245 131.185 7.2059 131.954 7.95236C132.531 8.55101 132.819 9.2753 132.819 10.1031V10.14C132.819 11.8916 131.74 12.7933 130.683 13.2515C132.279 13.7097 133.565 14.6705 133.565 16.496V16.533C133.565 18.8389 131.621 20.2062 128.687 20.2062H122.708V6.76245ZM131.282 10.3174C131.282 8.99445 130.225 8.12974 128.303 8.12974H124.209V12.7637H128.185C130.032 12.7637 131.282 11.9581 131.282 10.3617V10.3174ZM132.028 16.4074C132.028 14.944 130.816 14.1014 128.451 14.1014H124.201V18.8463H128.717C130.772 18.8463 132.021 17.9594 132.021 16.4443V16.4074H132.028Z" fill="black"/>
    <path d="M136.581 6.76245H142.368C144.038 6.76245 145.346 7.26502 146.189 8.10756C146.861 8.78012 147.223 9.68179 147.223 10.7608V10.7978C147.223 13.0298 145.686 14.3527 143.572 14.7149L147.704 20.2136H145.841L141.939 14.9883H138.096V20.2136H136.581V6.76245ZM142.235 13.621C144.23 13.621 145.694 12.5863 145.694 10.8569V10.82C145.694 9.14966 144.422 8.16669 142.257 8.16669H138.103V13.621H142.235Z" fill="black"/>
    <path d="M150.475 6.76245H160.202V8.14452H151.998V12.7342H159.337V14.1162H151.998V18.8241H160.298V20.2062H150.475V6.76245Z" fill="black"/>
    <path d="M163.35 6.76245H164.887L169.787 14.1014L174.687 6.76245H176.225V20.2136H174.71V9.31964L169.81 16.5256H169.736L164.836 9.34182V20.221H163.357V6.76245H163.35Z" fill="black"/>
    <path d="M179.432 13.5251V13.4881C179.432 9.77798 182.218 6.53345 186.313 6.53345C190.407 6.53345 193.157 9.74102 193.157 13.4512V13.4881C193.157 17.1983 190.37 20.4428 186.276 20.4428C182.181 20.4428 179.432 17.2352 179.432 13.5251ZM191.575 13.5251V13.4881C191.575 10.4358 189.343 7.93769 186.269 7.93769C183.194 7.93769 181.006 10.3988 181.006 13.4512V13.4881C181.006 16.5405 183.238 19.0386 186.313 19.0386C189.387 19.0459 191.575 16.5848 191.575 13.5251Z" fill="black"/>
    <path d="M195.381 18.2551L196.32 17.1391C197.724 18.425 199.069 19.0385 200.932 19.0385C202.757 19.0385 203.932 18.0777 203.932 16.7547V16.7178C203.932 15.4687 203.26 14.774 200.437 14.1606C197.34 13.488 195.921 12.4903 195.921 10.2805V10.2435C195.921 8.15193 197.783 6.57031 200.341 6.57031C202.321 6.57031 203.681 7.12462 205.071 8.22584L204.184 9.40096C202.935 8.38104 201.686 7.9376 200.304 7.9376C198.537 7.9376 197.443 8.87622 197.443 10.1105V10.1474C197.443 11.4186 198.116 12.1429 201.094 12.7637C204.095 13.4363 205.477 14.5153 205.477 16.57V16.6069C205.477 18.9128 203.556 20.4131 200.887 20.4131C198.729 20.4058 197 19.7184 195.381 18.2551Z" fill="black"/>
    <path d="M213.023 18.0259L214.117 17.0873C214.945 18.3363 215.787 19.0089 217.191 19.0089C218.706 19.0089 219.822 17.9151 219.822 15.7791V6.76245H221.36V15.757C221.36 17.3534 220.901 18.5211 220.133 19.2897C219.364 20.0362 218.381 20.4057 217.177 20.4057C215.151 20.4057 213.865 19.408 213.023 18.0259Z" fill="black"/>
    <path d="M224.745 14.5818V6.76245H226.26V14.4858C226.26 17.4051 227.775 19.0237 230.369 19.0237C232.845 19.0237 234.426 17.5234 234.426 14.5818V6.76245H235.942V14.471C235.942 18.4102 233.695 20.4279 230.332 20.4279C227.014 20.4279 224.745 18.3881 224.745 14.5818Z" fill="black"/>
    <path d="M239.541 6.76245H240.96L249.437 17.5455V6.76245H250.915V20.2136H249.703L241.019 9.18661V20.2136H239.541V6.76245Z" fill="black"/>
    <path d="M258.217 8.16669H253.679V6.76245H264.27V8.16669H259.732V20.2136H258.217V8.16669Z" fill="black"/>
    <path d="M265.579 13.5251V13.4881C265.579 9.77798 268.365 6.53345 272.459 6.53345C276.554 6.53345 279.303 9.74102 279.303 13.4512V13.4881C279.303 17.1983 276.517 20.4428 272.422 20.4428C268.328 20.4428 265.579 17.2352 265.579 13.5251ZM277.722 13.5251V13.4881C277.722 10.4358 275.49 7.93769 272.415 7.93769C269.34 7.93769 267.153 10.3988 267.153 13.4512V13.4881C267.153 16.5405 269.385 19.0386 272.459 19.0386C275.534 19.0386 277.722 16.5848 277.722 13.5251Z" fill="black"/>
    <path d="M281.528 18.2551L282.466 17.1391C283.871 18.425 285.216 19.0385 287.078 19.0385C288.904 19.0385 290.079 18.0777 290.079 16.7547V16.7178C290.079 15.4687 289.406 14.774 286.583 14.1606C283.486 13.488 282.067 12.4903 282.067 10.2805V10.2435C282.067 8.15193 283.93 6.57031 286.487 6.57031C288.468 6.57031 289.828 7.12462 291.217 8.22584L290.33 9.40096C289.081 8.38104 287.832 7.9376 286.45 7.9376C284.684 7.9376 283.59 8.87622 283.59 10.1105V10.1474C283.59 11.4186 284.262 12.1429 287.241 12.7637C290.241 13.4363 291.624 14.5153 291.624 16.57V16.6069C291.624 18.9128 289.702 20.4131 287.034 20.4131C284.868 20.4058 283.139 19.7184 281.528 18.2551Z" fill="black"/>
    <path d="M300.47 6.76245H301.985V18.8093H309.561V20.2136H300.47V6.76245Z" fill="black"/>
    <path d="M310.795 13.5251V13.4881C310.795 9.77798 313.581 6.53345 317.676 6.53345C321.77 6.53345 324.52 9.74102 324.52 13.4512V13.4881C324.52 17.1983 321.733 20.4428 317.639 20.4428C313.544 20.4428 310.795 17.2352 310.795 13.5251ZM322.938 13.5251V13.4881C322.938 10.4358 320.706 7.93769 317.631 7.93769C314.557 7.93769 312.369 10.3988 312.369 13.4512V13.4881C312.369 16.5405 314.601 19.0386 317.676 19.0386C320.75 19.0386 322.938 16.5848 322.938 13.5251Z" fill="black"/>
    <path d="M326.744 18.2551L327.683 17.1391C329.087 18.425 330.432 19.0385 332.295 19.0385C334.12 19.0385 335.295 18.0777 335.295 16.7547V16.7178C335.295 15.4687 334.623 14.774 331.799 14.1606C328.703 13.488 327.284 12.4903 327.284 10.2805V10.2435C327.284 8.15193 329.146 6.57031 331.703 6.57031C333.684 6.57031 335.044 7.12462 336.433 8.22584L335.547 9.40096C334.297 8.38104 333.048 7.9376 331.666 7.9376C329.9 7.9376 328.806 8.87622 328.806 10.1105V10.1474C328.806 11.4186 329.479 12.1429 332.457 12.7637C335.458 13.4363 336.84 14.5153 336.84 16.57V16.6069C336.84 18.9128 334.918 20.4131 332.25 20.4131C330.085 20.4058 328.355 19.7184 326.744 18.2551Z" fill="black"/>
</svg>