<svg viewBox="0 0 25 26" fill="none" xmlns="http://www.w3.org/2000/svg">
    <path d="M17.9367 23.0793C17.3823 23.0001 16.6834 22.9255 15.9938 22.7997C15.5372 22.7159 15.1785 22.7997 14.8523 23.1492C14.433 23.5964 13.9764 24.0111 13.5338 24.4351C12.6625 25.2691 11.3533 25.2691 10.4913 24.4351C9.99745 23.9599 9.49892 23.4846 9.0097 23.0047C8.8047 22.8044 8.5764 22.7252 8.29219 22.7671C7.64456 22.865 6.99694 22.9442 6.34931 23.042C5.0494 23.2377 3.99176 22.4736 3.77278 21.1737C3.66562 20.5354 3.54914 19.9017 3.44198 19.2634C3.39073 18.9559 3.23697 18.7416 2.95742 18.5971C2.36105 18.2896 1.76933 17.9775 1.18227 17.656C0.0920237 17.0643 -0.299348 15.8389 0.241118 14.7254C0.529987 14.129 0.814197 13.5326 1.11704 12.9409C1.25682 12.6613 1.26614 12.4004 1.1217 12.1209C0.828175 11.5385 0.543965 10.9468 0.259754 10.3597C-0.304007 9.19956 0.0827052 7.98817 1.21489 7.37782C1.79263 7.06565 2.36571 6.75815 2.9481 6.45996C3.24629 6.30621 3.40005 6.07791 3.4513 5.75176C3.55846 5.09016 3.67494 4.43321 3.79142 3.77161C3.99176 2.63943 5.00281 1.87998 6.17692 1.99646C6.81989 2.06169 7.4582 2.15953 8.0965 2.26669C8.50651 2.33658 8.83732 2.26203 9.1355 1.94987C9.56415 1.49793 10.0254 1.0786 10.4727 0.649956C11.3766 -0.216652 12.6578 -0.216652 13.5664 0.649956C14.0416 1.1019 14.5122 1.55384 14.9735 2.0151C15.2064 2.25272 15.4673 2.33658 15.7981 2.28533C16.4131 2.18749 17.0282 2.11294 17.6432 2.01976C18.985 1.81475 20.0287 2.56488 20.2616 3.89275C20.3688 4.52174 20.4853 5.15073 20.5924 5.77972C20.6437 6.09654 20.8068 6.31553 21.091 6.45996C21.678 6.76281 22.2651 7.07497 22.8475 7.38714C23.961 7.99283 24.3431 9.2182 23.7793 10.355C23.4905 10.9421 23.2109 11.5338 22.9174 12.1162C22.7776 12.3958 22.7823 12.6567 22.922 12.9362C23.2202 13.5279 23.5091 14.1243 23.798 14.7207C24.3384 15.8342 23.9517 17.0549 22.8568 17.6513C22.2744 17.9681 21.692 18.2803 21.1003 18.5785C20.7928 18.7323 20.639 18.9699 20.5878 19.3007C20.4853 19.9623 20.3641 20.6192 20.2477 21.2808C20.052 22.3385 19.1481 23.0839 17.9367 23.0793ZM18.0252 21.6349C18.4446 21.6489 18.7427 21.4113 18.8173 21.0153C18.9431 20.3397 19.0642 19.6641 19.176 18.9885C19.3018 18.243 19.7025 17.7026 20.3641 17.3485C20.9419 17.041 21.5196 16.7335 22.0974 16.426C22.5819 16.1697 22.7031 15.8063 22.4654 15.3124C22.1719 14.7114 21.8784 14.1103 21.5848 13.5046C21.2727 12.8617 21.268 12.2141 21.5755 11.5664C21.8691 10.9561 22.1719 10.3504 22.4654 9.74003C22.7031 9.25081 22.5773 8.88739 22.0927 8.62648C21.5056 8.31432 20.9232 8.00681 20.3408 7.69464C19.6932 7.34986 19.3065 6.81406 19.1807 6.08723C19.0689 5.44426 18.9571 4.80129 18.8406 4.15366C18.7381 3.57592 18.4213 3.35694 17.8389 3.44547C17.2006 3.53865 16.5576 3.62718 15.9193 3.7157C15.1738 3.82286 14.5355 3.60388 13.9997 3.07739C13.5338 2.62079 13.0632 2.16419 12.588 1.71225C12.2059 1.35815 11.8239 1.35815 11.4371 1.73089C10.9293 2.21544 10.4308 2.71398 9.91825 3.18921C9.44301 3.63183 8.86993 3.8182 8.2223 3.739C7.54206 3.65513 6.86182 3.55263 6.18624 3.45479C5.61782 3.37092 5.29633 3.5899 5.19383 4.149C5.07735 4.78265 4.96553 5.42096 4.85837 6.05927C4.73257 6.8327 4.31325 7.38714 3.61903 7.7459C3.05061 8.03942 2.4915 8.34227 1.92774 8.64046C1.44319 8.89671 1.32205 9.26013 1.55967 9.754C1.8532 10.355 2.14672 10.9561 2.44025 11.5618C2.75708 12.2141 2.75242 12.871 2.43559 13.5233C2.14672 14.1197 1.8532 14.7114 1.56433 15.3078C1.31739 15.8203 1.43387 16.1744 1.92774 16.4399C2.52878 16.7568 3.12981 17.0689 3.72153 17.3951C4.33654 17.7352 4.71394 18.257 4.83507 18.9559C4.95155 19.6175 5.06337 20.2744 5.18451 20.936C5.28236 21.4812 5.60384 21.7048 6.15828 21.6256C6.79193 21.5371 7.42092 21.4486 8.05457 21.3554C8.83732 21.2342 9.49892 21.4672 10.058 22.0216C10.5053 22.4643 10.9619 22.9022 11.4138 23.3355C11.8239 23.7269 12.1919 23.7269 12.6066 23.3309C13.1051 22.8556 13.5897 22.3711 14.0882 21.9052C14.5821 21.4439 15.1738 21.2529 15.8494 21.3414C16.5949 21.4299 17.3263 21.5371 18.0252 21.6349Z" fill="#84754E"/>
    <path d="M17.5641 7.80177C17.4476 7.98348 17.3637 8.19315 17.2146 8.34224C15.8541 9.72136 14.4797 11.0865 13.1099 12.4563C11.3534 14.2128 9.59219 15.974 7.83568 17.7352C7.64465 17.9262 7.43499 18.052 7.15544 18.0147C6.87123 17.9774 6.66623 17.819 6.56838 17.5488C6.46588 17.2599 6.53111 16.999 6.75009 16.78C7.47226 16.0578 8.19444 15.3357 8.91661 14.6135C11.3487 12.1767 13.7855 9.74465 16.2176 7.3079C16.4365 7.08892 16.6881 6.98642 16.9956 7.0796C17.2798 7.16813 17.4429 7.37313 17.4942 7.66666C17.4988 7.69927 17.5035 7.73189 17.5082 7.75984C17.5268 7.77848 17.5454 7.7878 17.5641 7.80177Z" fill="#84754E"/>
    <path d="M11.5814 8.67772C11.5814 10.136 10.384 11.3381 8.93503 11.3288C7.47204 11.3241 6.28395 10.1407 6.28395 8.68238C6.27929 7.2194 7.48602 6.02199 8.95366 6.0313C10.398 6.04062 11.5814 7.23337 11.5814 8.67772ZM7.7283 8.66374C7.70966 9.31603 8.24547 9.87047 8.90707 9.88911C9.55936 9.90775 10.1185 9.36728 10.1371 8.71034C10.1557 8.05339 9.62924 7.49895 8.96764 7.47099C8.31535 7.4477 7.75159 7.98816 7.7283 8.66374Z" fill="#84754E"/>
    <path d="M12.4483 16.3887C12.4529 14.8978 13.6596 13.7237 15.1692 13.7377C16.581 13.7516 17.7551 14.9677 17.7504 16.4074C17.7457 17.8471 16.539 19.0398 15.104 19.0352C13.6363 19.0352 12.4436 17.8378 12.4483 16.3887ZM16.3014 16.3887C16.3107 15.7365 15.7656 15.1867 15.104 15.1774C14.4517 15.168 13.8973 15.7178 13.8879 16.3701C13.8786 17.0224 14.4144 17.5722 15.076 17.5908C15.7376 17.6141 16.2921 17.0643 16.3014 16.3887Z" fill="#84754E"/>
</svg>