<svg viewBox="0 0 507 159" fill="none" xmlns="http://www.w3.org/2000/svg">
    <path opacity="0.2" d="M481.034 128.724L51.4468 141.157C42.1169 141.941 34.2695 134.242 34.8762 124.895L41.6876 56.163C41.9853 51.6068 45.8031 48.0809 50.3707 48.1553L470.594 54.0509C484.045 54.2684 494.577 65.6932 493.695 79.1157L488.859 120.745C488.584 124.975 485.253 128.37 481.034 128.724Z" fill="black"/>
    <path d="M472.511 120.957L42.9239 133.389C33.594 134.174 25.7466 126.475 26.3533 117.128L33.1647 48.3958C33.4623 43.8396 37.2802 40.3137 41.8478 40.3881L462.071 46.2837C475.522 46.5012 486.054 57.926 485.172 71.3485L480.336 112.978C480.061 117.214 476.735 120.602 472.511 120.957Z" fill="#C50000"/>
    <path d="M480.342 112.984L482.431 81.0276C472.74 93.3511 396.252 107.707 345.579 111.845L26.4449 115.737L26.3533 117.134C25.7466 126.481 33.5883 134.179 42.9239 133.395L472.511 120.963C476.736 120.602 480.061 117.214 480.342 112.984Z" fill="#BE1E2D"/>
    <path d="M55.4537 128.341L42.6265 129.417C31.3047 130.367 21.7917 121.032 22.53 109.693L28.8892 47.8405C29.3014 41.55 34.573 36.6847 40.8807 36.7877L48.4248 36.9079" stroke="black" stroke-width="3.386" stroke-miterlimit="10" stroke-linecap="round" stroke-linejoin="round"/>
    <path d="M458.122 118.17L58.8708 128.049" stroke="black" stroke-width="3.386" stroke-miterlimit="10" stroke-linecap="round" stroke-linejoin="round"/>
    <path d="M462.769 117.781L460.846 117.941" stroke="black" stroke-width="3.386" stroke-miterlimit="10" stroke-linecap="round" stroke-linejoin="round"/>
    <path d="M58.0522 37.0624L454.579 42.5745C469.89 42.8206 481.881 55.8309 480.885 71.1136L476.455 106.527C476.072 112.366 471.475 117.048 465.649 117.54" stroke="black" stroke-width="3.386" stroke-miterlimit="10" stroke-linecap="round" stroke-linejoin="round"/>
    <path d="M28.5917 134.013L20.71 145.163L25.8214 147.441L28.5917 134.013Z" fill="#333333"/>
    <path d="M31.1616 145.226L26.4565 158.185L31.2875 158.38L31.1616 145.226Z" fill="#333333"/>
    <path d="M18.7292 141.237L9.71411 147.985L13.0053 150.332L18.7292 141.237Z" fill="#333333"/>
    <path d="M23.7264 129.549L16.543 133.452L18.5635 136.091L23.7264 129.549Z" fill="#333333"/>
    <path d="M482.964 52.0933L493.799 43.7822L489.592 40.0903L482.964 52.0933Z" fill="#333333"/>
    <path d="M483.839 40.6225L492.167 29.6441L487.611 28.0243L483.839 40.6225Z" fill="#333333"/>
    <path d="M494.526 48.121L505.132 44.3433L502.688 41.1322L494.526 48.121Z" fill="#333333"/>
    <path d="M486.289 57.8001L494.302 56.2031L493.157 53.0836L486.289 57.8001Z" fill="#333333"/>
    <path d="M163.778 24.8932L174.613 16.5822L170.4 12.8903L163.778 24.8932Z" fill="#333333"/>
    <path d="M164.648 13.4229L172.982 2.44456L168.426 0.824707L164.648 13.4229Z" fill="#333333"/>
    <path d="M175.334 20.9211L185.947 17.1491L183.502 13.9323L175.334 20.9211Z" fill="#333333"/>
    <path d="M167.098 30.6059L175.117 29.0032L173.966 25.8837L167.098 30.6059Z" fill="#333333"/>
    <path d="M32.6657 11.7733L32.0615 12.6844L57.5586 29.5907L58.1627 28.6796L32.6657 11.7733Z" fill="#333333"/>
    <path d="M46.5653 15.5981L45.9744 16.5178L46.6726 16.9664L47.2635 16.0467L46.5653 15.5981Z" fill="#333333"/>
    <path d="M48.3697 16.7537L47.7786 17.6733L48.7897 18.3233L49.3808 17.4036L48.3697 16.7537Z" fill="#333333"/>
    <path d="M52.5424 19.4363L51.9514 20.3561L60.6337 25.9351L61.2248 25.0154L52.5424 19.4363Z" fill="#333333"/>
    <path d="M481.515 119.14L480.917 120.055L499.343 132.101L499.941 131.186L481.515 119.14Z" fill="#333333"/>
    <path d="M493.698 133.304L493.106 134.223L493.804 134.672L494.396 133.753L493.698 133.304Z" fill="#333333"/>
    <path d="M491.553 131.933L490.962 132.853L491.974 133.502L492.565 132.582L491.553 131.933Z" fill="#333333"/>
    <path d="M479.713 124.303L479.122 125.223L487.804 130.802L488.395 129.882L479.713 124.303Z" fill="#333333"/>
    <path d="M20.9027 100.824L5.08154 101.432L5.12352 102.525L20.9446 101.917L20.9027 100.824Z" fill="#333333"/>
    <path d="M4.84038 96.3591L4.0105 96.373L4.02886 97.4662L4.85874 97.4523L4.84038 96.3591Z" fill="#333333"/>
    <path d="M7.35887 96.3155L6.15698 96.3357L6.17535 97.4288L7.37724 97.4087L7.35887 96.3155Z" fill="#333333"/>
    <path d="M21.4395 96.0786L11.1204 96.252L11.1387 97.3451L21.4578 97.1717L21.4395 96.0786Z" fill="#333333"/>
    <path d="M170.625 132.68L170.021 133.592L195.518 150.498L196.122 149.587L170.625 132.68Z" fill="#333333"/>
    <path d="M184.532 136.5L183.94 137.419L184.639 137.868L185.23 136.949L184.532 136.5Z" fill="#333333"/>
    <path d="M186.327 137.646L185.736 138.566L186.747 139.215L187.338 138.295L186.327 137.646Z" fill="#333333"/>
    <path d="M190.512 140.337L189.921 141.257L198.603 146.836L199.194 145.916L190.512 140.337Z" fill="#333333"/>
    <path d="M219.279 15.5845L218.675 16.4956L244.172 33.4019L244.776 32.4908L219.279 15.5845Z" fill="#333333"/>
    <path d="M233.172 19.4023L232.581 20.3223L233.28 20.7706L233.87 19.8506L233.172 19.4023Z" fill="#333333"/>
    <path d="M234.986 20.568L234.395 21.4877L235.406 22.1376L235.997 21.2179L234.986 20.568Z" fill="#333333"/>
    <path d="M239.168 23.2543L238.577 24.174L247.258 29.754L247.85 28.8344L239.168 23.2543Z" fill="#333333"/>
    <path d="M97.8561 138.69C97.8675 139.863 96.9174 140.825 95.744 140.836C94.5706 140.847 93.609 139.897 93.5975 138.724C93.5861 137.551 94.5362 136.589 95.7096 136.577C96.8887 136.566 97.8503 137.51 97.8561 138.69Z" fill="#333333"/>
    <path d="M107.083 138.615C107.094 139.789 106.144 140.75 104.971 140.762C103.797 140.773 102.836 139.823 102.824 138.649C102.813 137.476 103.763 136.514 104.936 136.503C106.115 136.492 107.077 137.442 107.083 138.615Z" fill="#333333"/>
    <path d="M116.316 138.541C116.327 139.714 115.377 140.676 114.203 140.687C113.03 140.699 112.068 139.749 112.057 138.575C112.046 137.402 112.996 136.44 114.169 136.429C115.342 136.423 116.304 137.367 116.316 138.541Z" fill="#333333"/>
    <path d="M125.542 138.472C125.554 139.645 124.604 140.607 123.43 140.619C122.257 140.63 121.295 139.68 121.284 138.506C121.272 137.333 122.223 136.371 123.396 136.36C124.569 136.349 125.531 137.293 125.542 138.472Z" fill="#333333"/>
    <path d="M134.769 138.398C134.781 139.571 133.831 140.533 132.657 140.544C131.484 140.556 130.522 139.605 130.511 138.432C130.499 137.259 131.45 136.297 132.623 136.286C133.802 136.274 134.758 137.224 134.769 138.398Z" fill="#333333"/>
    <path d="M143.996 138.323C144.008 139.496 143.057 140.458 141.884 140.47C140.711 140.481 139.749 139.531 139.738 138.357C139.726 137.184 140.676 136.222 141.85 136.211C143.029 136.205 143.99 137.15 143.996 138.323Z" fill="#333333"/>
    <path d="M153.223 138.255C153.234 139.428 152.284 140.39 151.111 140.401C149.938 140.412 148.976 139.462 148.964 138.289C148.953 137.115 149.903 136.154 151.077 136.142C152.256 136.131 153.217 137.075 153.223 138.255Z" fill="#333333"/>
    <path d="M162.455 138.18C162.467 139.353 161.517 140.315 160.343 140.327C159.17 140.338 158.208 139.388 158.197 138.214C158.185 137.041 159.136 136.079 160.309 136.068C161.482 136.057 162.444 137.007 162.455 138.18Z" fill="#333333"/>
    <path d="M324.303 35.9404C324.28 37.1137 323.307 38.0467 322.128 38.0238C320.949 38.0009 320.016 37.0279 320.045 35.8488C320.068 34.6754 321.041 33.7367 322.22 33.7653C323.393 33.7882 324.326 34.7612 324.303 35.9404Z" fill="#333333"/>
    <path d="M333.525 36.1293C333.502 37.3027 332.529 38.2357 331.35 38.2128C330.177 38.1899 329.238 37.2169 329.267 36.0377C329.289 34.8643 330.262 33.9256 331.442 33.9543C332.621 33.9829 333.554 34.9559 333.525 36.1293Z" fill="#333333"/>
    <path d="M342.752 36.324C342.729 37.4974 341.756 38.4361 340.577 38.4075C339.403 38.3846 338.47 37.4116 338.493 36.2324C338.516 35.0533 339.489 34.1203 340.668 34.149C341.847 34.1719 342.78 35.1449 342.752 36.324Z" fill="#333333"/>
    <path d="M351.978 36.5129C351.956 37.6863 350.983 38.625 349.803 38.5964C348.63 38.5735 347.697 37.6004 347.72 36.4213C347.743 35.2479 348.716 34.3149 349.895 34.3378C351.074 34.3607 352.007 35.3395 351.978 36.5129Z" fill="#333333"/>
    <path d="M361.205 36.7074C361.182 37.8808 360.209 38.8138 359.03 38.7909C357.857 38.768 356.918 37.795 356.947 36.6159C356.97 35.4425 357.943 34.5038 359.122 34.5324C360.295 34.5553 361.228 35.5283 361.205 36.7074Z" fill="#333333"/>
    <path d="M370.432 36.8964C370.409 38.0698 369.436 39.0085 368.257 38.9799C367.084 38.957 366.145 37.9839 366.174 36.8048C366.197 35.6314 367.17 34.6927 368.349 34.7213C369.522 34.75 370.455 35.723 370.432 36.8964Z" fill="#333333"/>
    <path d="M379.659 37.091C379.636 38.2644 378.663 39.2031 377.484 39.1745C376.311 39.1516 375.372 38.1785 375.401 36.9994C375.423 35.826 376.397 34.8873 377.576 34.9159C378.749 34.9388 379.682 35.9119 379.659 37.091Z" fill="#333333"/>
    <path d="M388.886 37.2798C388.863 38.4532 387.89 39.3862 386.711 39.3633C385.537 39.3404 384.604 38.3674 384.627 37.1882C384.65 36.0149 385.623 35.0761 386.802 35.1048C387.976 35.1334 388.909 36.1064 388.886 37.2798Z" fill="#333333"/>
    <path d="M496.566 105.475L496.092 112.826L497.006 112.885L497.48 105.534L496.566 105.475Z" fill="#333333"/>
    <path d="M493.136 108.492L493.078 109.406L500.429 109.879L500.488 108.965L493.136 108.492Z" fill="#333333"/>
    <path d="M469.043 28.8164L465.486 35.2673L466.288 35.7096L469.845 29.2586L469.043 28.8164Z" fill="#333333"/>
    <path d="M464.624 30.0781L464.182 30.8799L470.631 34.4394L471.074 33.6376L464.624 30.0781Z" fill="#333333"/>
    <path d="M504.972 62.7101L501.415 69.161L502.217 69.6033L505.774 63.1523L504.972 62.7101Z" fill="#333333"/>
    <path d="M500.551 63.9686L500.108 64.7704L506.558 68.3299L507 67.5281L500.551 63.9686Z" fill="#333333"/>
    <path d="M20.0666 28.7206L16.5093 35.1715L17.3113 35.6138L20.8686 29.1628L20.0666 28.7206Z" fill="#333333"/>
    <path d="M15.6803 29.9863L15.2378 30.7881L21.6873 34.3476L22.1298 33.5458L15.6803 29.9863Z" fill="#333333"/>
    <path d="M4.82662 119.201L1.26929 125.652L2.07127 126.094L5.62861 119.643L4.82662 119.201Z" fill="#333333"/>
    <path d="M0.442523 120.458L0 121.26L6.44947 124.819L6.89199 124.018L0.442523 120.458Z" fill="#333333"/>
    <path d="M475.143 139.588L474.67 146.939L475.584 146.998L476.057 139.647L475.143 139.588Z" fill="#333333"/>
    <path d="M471.714 142.6L471.655 143.514L479.006 143.987L479.065 143.073L471.714 142.6Z" fill="#333333"/>
    <path d="M285.584 21.4382L285.11 28.7893L286.024 28.8482L286.498 21.4971L285.584 21.4382Z" fill="#333333"/>
    <path d="M282.162 24.4548L282.103 25.3687L289.454 25.8416L289.513 24.9277L282.162 24.4548Z" fill="#333333"/>
    <path d="M107.221 61.8412H109.029V76.1966H118.05V77.868H107.221V61.8412Z" fill="white"/>
    <path d="M119.515 69.8945V69.8487C119.515 65.4299 122.835 61.5605 127.712 61.5605C132.588 61.5605 135.862 65.3841 135.862 69.8029V69.8487C135.862 74.2675 132.543 78.1369 127.666 78.1369C122.789 78.1369 119.515 74.3133 119.515 69.8945ZM133.985 69.8945V69.8487C133.985 66.2083 131.329 63.2319 127.666 63.2319C124.003 63.2319 121.393 66.1625 121.393 69.8029V69.8487C121.393 73.4891 124.048 76.4655 127.712 76.4655C131.375 76.4655 133.985 73.5349 133.985 69.8945Z" fill="white"/>
    <path d="M138.519 75.5268L139.641 74.1988C141.312 75.7328 142.915 76.4655 145.136 76.4655C147.311 76.4655 148.707 75.3207 148.707 73.7409V73.6951C148.707 72.2069 147.906 71.3827 144.54 70.65C140.854 69.8487 139.16 68.6581 139.16 66.0251V65.9794C139.16 63.4837 141.381 61.6063 144.426 61.6063C146.784 61.6063 148.41 62.2703 150.058 63.5753L149.005 64.972C147.517 63.7585 146.029 63.2319 144.38 63.2319C142.274 63.2319 140.969 64.3538 140.969 65.8191V65.8649C140.969 67.376 141.77 68.246 145.319 68.9787C148.89 69.78 150.539 71.0621 150.539 73.512V73.5577C150.539 76.3052 148.249 78.0911 145.067 78.0911C142.503 78.0911 140.442 77.2668 138.519 75.5268Z" fill="white"/>
    <path d="M159.743 61.8412H166.955C171.213 61.8412 174.121 63.7415 174.121 67.5422V67.5879C174.121 71.4573 171.168 73.5179 166.84 73.5179H165.1V77.868H159.743V61.8412ZM166.543 69.6943C167.916 69.6943 168.832 69.099 168.832 67.9314V67.8856C168.832 66.7179 168.008 66.1226 166.566 66.1226H165.1V69.6943H166.543Z" fill="white"/>
    <path d="M175.266 61.8412H183.096C185.958 61.8412 187.744 62.5509 188.866 63.6728C189.85 64.6573 190.331 65.825 190.331 67.4735V67.5193C190.331 69.8775 189.117 71.4802 187.171 72.4189L190.903 77.868H184.79L181.768 73.2889H180.623V77.868H175.266V61.8412ZM182.936 69.4597C184.218 69.4597 184.996 68.8873 184.996 67.9028V67.857C184.996 66.8267 184.218 66.323 182.958 66.323H180.623V69.4597H182.936Z" fill="white"/>
    <path d="M191.682 61.8412H197.039V77.868H191.682V61.8412Z" fill="white"/>
    <path d="M198.917 61.8412H204.503L207.938 67.4735L211.372 61.8412H216.958V77.868H211.624V69.9233L207.938 75.6242H207.846L204.16 69.9233V77.868H198.917V61.8412Z" fill="white"/>
    <path d="M218.79 61.8412H232.458V66.2371H224.056V67.8627H231.886V71.732H224.056V73.4721H232.573V77.868H218.79V61.8412Z" fill="white"/>
    <path d="M234.015 61.8412H241.846C244.708 61.8412 246.493 62.5509 247.615 63.6728C248.6 64.6573 249.081 65.825 249.081 67.4735V67.5193C249.081 69.8775 247.867 71.4802 245.921 72.4189L249.653 77.868H243.54L240.518 73.2889H239.373V77.868H234.015V61.8412ZM241.685 69.4597C242.967 69.4597 243.746 68.8873 243.746 67.9028V67.857C243.746 66.8267 242.968 66.323 241.708 66.323H239.373V69.4597H241.685Z" fill="white"/>
    <path d="M250.019 69.8946V69.8488C250.019 65.201 253.843 61.4919 258.788 61.4919C263.734 61.4919 267.511 65.1323 267.511 69.803V69.8488C267.511 74.4966 263.688 78.2056 258.742 78.2056C253.797 78.2056 250.019 74.5652 250.019 69.8946ZM262.108 69.8946V69.8488C262.108 67.9485 260.803 66.2313 258.742 66.2313C256.705 66.2313 255.423 67.9256 255.423 69.803V69.8488C255.423 71.7491 256.728 73.4663 258.788 73.4663C260.826 73.4663 262.108 71.772 262.108 69.8946Z" fill="white"/>
    <path d="M267.534 75.4582L270.396 72.0467C272.136 73.3976 274.105 73.9242 276.006 73.9242C276.99 73.9242 277.379 73.6723 277.379 73.2373V73.1915C277.379 72.7336 276.876 72.4817 275.159 72.1383C271.564 71.4057 268.404 70.3754 268.404 66.9868V66.941C268.404 63.896 270.808 61.5377 275.204 61.5377C278.318 61.5377 280.585 62.2704 282.439 63.7357L279.829 67.3532C278.295 66.2542 276.509 65.7734 275.021 65.7734C274.22 65.7734 273.854 66.0481 273.854 66.4373V66.4831C273.854 66.9182 274.266 67.2158 275.983 67.5134C280.081 68.2461 282.829 69.4824 282.829 72.6878V72.7336C282.829 76.0992 280.058 78.1598 275.754 78.1598C272.48 78.1598 269.572 77.2669 267.534 75.4582Z" fill="white"/>
    <path d="M293.406 66.4201L290.796 66.9925L289.834 63.0316L294.62 61.7266H298.672V77.8679H293.406V66.4201Z" fill="white"/>
    <path d="M300.321 69.8946V69.8488C300.321 65.43 303.206 61.4919 308.059 61.4919C312.913 61.4919 315.752 65.3842 315.752 69.803V69.8488C315.752 74.2676 312.868 78.2056 308.014 78.2056C303.16 78.2056 300.321 74.3134 300.321 69.8946ZM310.441 69.8946V69.8488C310.441 67.6508 309.479 66.1397 308.014 66.1397C306.548 66.1397 305.633 67.605 305.633 69.803V69.8488C305.633 72.0467 306.594 73.5578 308.059 73.5578C309.525 73.5578 310.441 72.0925 310.441 69.8946Z" fill="white"/>
    <path d="M317.034 69.8946V69.8488C317.034 65.43 319.919 61.4919 324.773 61.4919C329.627 61.4919 332.466 65.3842 332.466 69.803V69.8488C332.466 74.2676 329.581 78.2056 324.727 78.2056C319.873 78.2056 317.034 74.3134 317.034 69.8946ZM327.154 69.8946V69.8488C327.154 67.6508 326.192 66.1397 324.727 66.1397C323.262 66.1397 322.346 67.605 322.346 69.803V69.8488C322.346 72.0467 323.308 73.5578 324.773 73.5578C326.238 73.5578 327.154 72.0925 327.154 69.8946Z" fill="white"/>
    <path d="M342.402 61.8412H344.211V77.868H342.402V61.8412Z" fill="white"/>
    <path d="M348.905 61.8412H350.599L360.696 74.6855V61.8412H362.459V77.868H361.016L350.668 64.726V77.868H348.905V61.8412Z" fill="white"/>
    <path d="M365.939 75.5268L367.061 74.1988C368.732 75.7328 370.335 76.4655 372.556 76.4655C374.731 76.4655 376.128 75.3207 376.128 73.7409V73.6951C376.128 72.2069 375.326 71.3827 371.961 70.65C368.275 69.8487 366.58 68.6581 366.58 66.0251V65.9794C366.58 63.4837 368.801 61.6063 371.846 61.6063C374.204 61.6063 375.83 62.2703 377.479 63.5753L376.425 64.972C374.937 63.7585 373.449 63.2319 371.8 63.2319C369.694 63.2319 368.389 64.3538 368.389 65.8191V65.8649C368.389 67.376 369.19 68.246 372.739 68.9787C376.311 69.78 377.959 71.0621 377.959 73.512V73.5577C377.959 76.3052 375.67 78.0911 372.487 78.0911C369.923 78.0911 367.862 77.2668 365.939 75.5268Z" fill="white"/>
    <path d="M380.936 69.8945V69.8487C380.936 65.3154 384.347 61.5605 389.041 61.5605C391.948 61.5605 393.711 62.5679 395.291 64.1019L394.055 65.4299C392.681 64.1477 391.216 63.2319 389.018 63.2319C385.469 63.2319 382.813 66.1167 382.813 69.8029V69.8487C382.813 73.5578 385.469 76.4655 389.018 76.4655C391.216 76.4655 392.658 75.6184 394.192 74.153L395.383 75.3207C393.734 77.015 391.857 78.1369 388.972 78.1369C384.347 78.1369 380.936 74.4965 380.936 69.8945Z" fill="white"/>
    <path d="M398.634 61.8412H405.525C407.517 61.8412 409.074 62.4365 410.082 63.4439C410.883 64.2452 411.318 65.3213 411.318 66.6034V66.6492C411.318 69.3051 409.486 70.8849 406.968 71.3199L411.89 77.868H409.669L405.022 71.6404H400.443V77.868H398.634V61.8412ZM405.365 70.0091C407.746 70.0091 409.486 68.7728 409.486 66.7122V66.6664C409.486 64.6745 407.975 63.5068 405.388 63.5068H400.443V70.0091H405.365Z" fill="white"/>
    <path d="M415.348 61.8412H417.156V77.868H415.348V61.8412Z" fill="white"/>
    <path d="M426.017 63.5126H420.614V61.8412H433.229V63.5126H427.826V77.868H426.017V63.5126Z" fill="white"/>
    <path d="M434.785 69.8945V69.8487C434.785 65.4299 438.105 61.5605 442.982 61.5605C447.859 61.5605 451.133 65.3841 451.133 69.8029V69.8487C451.133 74.2675 447.813 78.1369 442.936 78.1369C438.059 78.1369 434.785 74.3133 434.785 69.8945ZM449.25 69.8945V69.8487C449.25 66.2083 446.594 63.2319 442.93 63.2319C439.267 63.2319 436.657 66.1625 436.657 69.8029V69.8487C436.657 73.4891 439.313 76.4655 442.976 76.4655C446.64 76.4655 449.25 73.5349 449.25 69.8945Z" fill="white"/>
    <path d="M453.789 75.5268L454.911 74.1988C456.582 75.7328 458.185 76.4655 460.406 76.4655C462.581 76.4655 463.978 75.3207 463.978 73.7409V73.6951C463.978 72.2069 463.176 71.3827 459.811 70.65C456.124 69.8487 454.43 68.6581 454.43 66.0251V65.9794C454.43 63.4837 456.651 61.6063 459.696 61.6063C462.054 61.6063 463.68 62.2703 465.328 63.5753L464.275 64.972C462.787 63.7585 461.299 63.2319 459.65 63.2319C457.544 63.2319 456.239 64.3538 456.239 65.8191V65.8649C456.239 67.376 457.04 68.246 460.589 68.9787C464.161 69.78 465.809 71.0621 465.809 73.512V73.5577C465.809 76.3052 463.52 78.0911 460.337 78.0911C457.773 78.0911 455.712 77.2668 453.789 75.5268Z" fill="white"/>
    <path d="M106.167 101.284L107.289 99.9563C108.96 101.49 110.563 102.223 112.784 102.223C114.959 102.223 116.356 101.078 116.356 99.4984V99.4526C116.356 97.9644 115.554 97.1401 112.189 96.4075C108.503 95.6061 106.808 94.4156 106.808 91.7826V91.7368C106.808 89.2412 109.029 87.3638 112.074 87.3638C114.432 87.3638 116.058 88.0277 117.707 89.3328L116.653 90.7294C115.165 89.5159 113.677 88.9893 112.028 88.9893C109.922 88.9893 108.617 90.1112 108.617 91.5765V91.6223C108.617 93.1334 109.418 94.0035 112.967 94.7361C116.539 95.5374 118.187 96.8196 118.187 99.2694V99.3152C118.187 102.063 115.898 103.848 112.715 103.848C110.151 103.848 108.09 103.024 106.167 101.284Z" fill="white"/>
    <path d="M121.874 87.5985H133.459V89.247H123.682V94.719H132.428V96.3675H123.682V101.977H133.573V103.625H121.874V87.5985Z" fill="white"/>
    <path d="M137.213 87.5985H144.105C146.097 87.5985 147.654 88.1938 148.661 89.2012C149.462 90.0025 149.897 91.0786 149.897 92.3608V92.4066C149.897 95.0624 148.066 96.6422 145.547 97.0772L150.47 103.625H148.249L143.601 97.3978H139.022V103.625H137.213V87.5985ZM143.945 95.7665C146.326 95.7665 148.066 94.5301 148.066 92.4695V92.4237C148.066 90.4318 146.555 89.2641 143.968 89.2641H139.022V95.7665H143.945Z" fill="white"/>
    <path d="M159.697 87.4841H161.391L168.695 103.625H166.749L164.871 99.3897H156.148L154.248 103.625H152.393L159.697 87.4841ZM164.162 97.7584L160.521 89.5848L156.858 97.7584H164.162ZM162.101 82.9966L163.91 83.8208L161.277 85.9501H159.811L162.101 82.9966Z" fill="white"/>
    <path d="M171.854 87.5985H173.549L183.646 100.443V87.5985H185.409V103.625H183.966L173.617 90.4833V103.625H171.854V87.5985Z" fill="white"/>
    <path d="M195.093 95.6519V95.6061C195.093 90.821 198.871 87.2493 203.931 87.2493C206.701 87.2493 208.899 88.1422 210.639 89.6762L207.64 93.2937C206.564 92.4007 205.442 91.897 204.091 91.897C201.985 91.897 200.497 93.4997 200.497 95.6748V95.7206C200.497 98.0101 202.076 99.5441 204.32 99.5441C205.236 99.5441 205.717 99.4296 206.152 99.1778V97.5751H203.404V94.1408H211.166V101.559C209.426 103.001 207.022 103.963 204.091 103.963C199.077 103.963 195.093 100.62 195.093 95.6519Z" fill="white"/>
    <path d="M218.309 87.484H223.621L230.375 103.625H224.56L223.713 101.473H218.103L217.279 103.625H211.555L218.309 87.484ZM222.385 97.6668L220.919 93.7745L219.454 97.6668H222.385Z" fill="white"/>
    <path d="M231.039 87.5985H236.053L241.754 94.6732V87.5985H247.066V103.625H242.304L236.351 96.2301V103.625H231.039V87.5985Z" fill="white"/>
    <path d="M254.484 87.484H259.796L266.55 103.625H260.735L259.887 101.473H254.278L253.454 103.625H247.73L254.484 87.484ZM258.56 97.6668L257.094 93.7745L255.629 97.6668H258.56Z" fill="white"/>
    <path d="M267.214 87.5985H273.35C279.715 87.5985 282.897 90.7123 282.897 95.4745V95.5203C282.897 100.283 279.646 103.625 273.167 103.625H267.214V87.5985ZM272.571 92.2692V98.9547H273.464C275.937 98.9547 277.494 97.9473 277.494 95.6348V95.589C277.494 93.2766 275.937 92.2692 273.464 92.2692H272.571Z" fill="white"/>
    <path d="M283.996 95.6519V95.6061C283.996 90.9583 287.82 87.2493 292.765 87.2493C297.71 87.2493 301.488 90.8896 301.488 95.5603V95.6061C301.488 100.254 297.665 103.963 292.719 103.963C287.774 103.963 283.996 100.323 283.996 95.6519ZM296.085 95.6519V95.6061C296.085 93.7058 294.78 91.9886 292.719 91.9886C290.682 91.9886 289.399 93.6829 289.399 95.5603V95.6061C289.399 97.5064 290.704 99.2236 292.765 99.2236C294.803 99.2236 296.085 97.5293 296.085 95.6519Z" fill="white"/>
    <path d="M302.954 87.5985H310.784C313.646 87.5985 315.432 88.3083 316.553 89.4301C317.538 90.4146 318.019 91.5823 318.019 93.2308V93.2766C318.019 95.6348 316.805 97.2375 314.859 98.1762L318.591 103.625H312.478L309.456 99.0462H308.311V103.625H302.954V87.5985ZM310.624 95.217C311.906 95.217 312.684 94.6446 312.684 93.6601V93.6143C312.684 92.584 311.906 92.0803 310.646 92.0803H308.311V95.217H310.624Z" fill="white"/>
    <path d="M319.324 87.5985H332.992V91.9944H324.59V93.62H332.42V97.4893H324.59V99.2294H333.107V103.625H319.324V87.5985Z" fill="white"/>
    <path d="M333.221 101.216L336.083 97.8042C337.823 99.155 339.792 99.6816 341.692 99.6816C342.677 99.6816 343.066 99.4297 343.066 98.9947V98.9489C343.066 98.491 342.562 98.2392 340.845 97.8958C337.251 97.1631 334.091 96.1328 334.091 92.7443V92.6985C334.091 89.6534 336.495 87.2952 340.891 87.2952C344.005 87.2952 346.271 88.0278 348.126 89.4931L345.516 93.1106C343.982 92.0116 342.196 91.5308 340.708 91.5308C339.906 91.5308 339.54 91.8056 339.54 92.1948V92.2406C339.54 92.6756 339.952 92.9732 341.669 93.2709C345.768 94.0035 348.515 95.2399 348.515 98.4452V98.491C348.515 101.857 345.745 103.917 341.44 103.917C338.166 103.917 335.259 103.024 333.221 101.216Z" fill="white"/>
    <path d="M357.971 87.5985H363.535C368.572 87.5985 372.052 91.0557 372.052 95.5661V95.6119C372.052 100.122 368.572 103.625 363.535 103.625H357.971V87.5985ZM359.78 89.2699V101.954H363.535C367.587 101.954 370.174 99.2294 370.174 95.6577V95.6119C370.174 92.0631 367.587 89.2699 363.535 89.2699H359.78Z" fill="white"/>
    <path d="M375.876 87.5985H387.461V89.247H377.684V94.719H386.431V96.3675H377.684V101.977H387.575V103.625H375.876V87.5985Z" fill="white"/>
    <path d="M83.1056 82.8419L83.3975 82.7046C85.2005 81.8632 85.9847 79.711 85.149 77.908L83.9871 75.4181C83.1457 73.6151 80.9935 72.8252 79.1905 73.6666L78.8986 73.804L75.4356 66.3629C75.0121 65.4471 74.2565 64.7545 73.3064 64.4111C72.4821 64.1135 71.6064 64.1077 70.7879 64.3882C70.7592 64.3768 70.7363 64.3596 70.7077 64.3482C70.5303 64.3138 70.3471 64.3596 70.2155 64.4741L48.2072 83.7692C48.0698 83.8894 48.0069 84.0611 48.0183 84.2328L43.8113 86.1904C42.3116 86.8887 41.1726 88.1308 40.6059 89.6877C40.0393 91.2446 40.1137 92.9274 40.812 94.427L42.8039 98.7028C43.8514 100.958 46.0951 102.286 48.4362 102.286C49.1059 102.286 49.787 102.171 50.451 101.942L54.3546 110.334C54.4519 110.54 54.658 110.66 54.8698 110.66C54.9499 110.66 55.0301 110.643 55.1102 110.608L61.9788 107.414C62.265 107.283 62.3852 106.945 62.2536 106.659L58.8822 99.4183L84.651 95.486C84.8285 95.4573 84.983 95.3486 85.0689 95.194C85.0803 95.1654 85.0803 95.1368 85.0918 95.1082C86.7288 94.1294 87.3928 92.0459 86.5685 90.2772L83.1056 82.8419ZM79.5339 74.4107C80.9248 73.7639 82.5905 74.3649 83.243 75.7615L84.4049 78.2514C85.0517 79.648 84.445 81.308 83.0541 81.9605L82.7622 82.0979L79.2477 74.5481L79.5339 74.4107ZM44.0746 98.1132L42.0827 93.8375C40.9665 91.4449 42.0083 88.5887 44.4066 87.4726L48.4533 85.5894L54.4863 98.5597L50.4395 100.443C48.0469 101.548 45.1907 100.506 44.0746 98.1132ZM60.9771 106.625L55.1445 109.338L51.4927 101.496L55.2476 99.7502C55.3506 99.8475 55.488 99.9105 55.6368 99.9105C55.6654 99.9105 55.694 99.9105 55.7226 99.9048L57.7146 99.6014L60.9771 106.625ZM56.1061 98.6913L49.3863 84.25L70.3986 65.8306L83.7295 94.4786L56.1061 98.6913ZM85.9217 92.8873C85.7157 93.4483 85.3551 93.9119 84.88 94.2553L71.3087 65.0923C72.6481 64.7603 74.0848 65.4071 74.6915 66.7064L78.1545 74.1474L82.3615 83.1854L85.8244 90.6264C86.1564 91.3419 86.1908 92.1489 85.9217 92.8873Z" fill="black"/>
    <path d="M46.2175 88.441L44.3079 89.3301L44.6534 90.0721L46.563 89.183L46.2175 88.441Z" fill="black"/>
    <path d="M46.7509 89.5859L44.8411 90.4746L45.1864 91.2168L47.0963 90.3281L46.7509 89.5859Z" fill="black"/>
    <path d="M47.2752 90.7249L45.3657 91.614L45.7112 92.356L47.6207 91.4669L47.2752 90.7249Z" fill="black"/>
    <path d="M67.9489 72.0696L64.4516 75.0174C64.1425 75.2807 64.1024 75.7386 64.3657 76.0477C64.5088 76.2194 64.7206 76.311 64.9267 76.311C65.0926 76.311 65.2586 76.2537 65.396 76.1393L68.8933 73.1915C69.2024 72.9282 69.2424 72.4703 68.9791 72.1612C68.7159 71.8521 68.2579 71.812 67.9489 72.0696Z" fill="black"/>
    <path d="M62.597 76.5799L56.5697 81.657C56.2606 81.9203 56.2206 82.3782 56.4839 82.6873C56.627 82.859 56.8388 82.9506 57.0448 82.9506C57.2108 82.9506 57.3768 82.8934 57.5142 82.7789L63.5357 77.6961C63.8448 77.4328 63.8848 76.9749 63.6215 76.6658C63.364 76.3567 62.9061 76.3167 62.597 76.5799Z" fill="black"/>
    <path d="M80.7303 58.693L80.1865 70.6788L83.306 58.8762L80.7303 58.693Z" fill="black"/>
    <path d="M86.4656 84.6678L94.5477 93.8203L96.1332 91.7769L86.4656 84.6678Z" fill="black"/>
    <path d="M85.6586 68.6868L83.8384 72.4931L86.9464 69.7629L85.6586 68.6868Z" fill="black"/>
    <path d="M91.2509 78.2457L87.0496 77.8622L90.6899 79.8369L91.2509 78.2457Z" fill="black"/>
    <path d="M43.2503 109.383L42.6665 109.343L42.5348 111.41L40.4628 111.278L40.4285 111.868L42.4948 111.999L42.3631 114.066L42.947 114.106L43.0843 112.034L45.1507 112.171L45.1907 111.581L43.1187 111.45L43.2503 109.383Z" fill="black"/>
    <path d="M44.3038 77.9022L44.8876 77.9366L45.0193 75.8703L47.0913 76.0019L47.1257 75.4181L45.0594 75.2807L45.191 73.2144L44.6072 73.1743L44.4698 75.2464L42.4035 75.1147L42.3691 75.6985L44.4355 75.8302L44.3038 77.9022Z" fill="black"/>
    <path d="M70.1583 55.3902L70.7479 55.4302L70.8795 53.3639L72.9458 53.4956L72.9859 52.9117L70.9196 52.7744L71.0512 50.708L70.4674 50.668L70.33 52.74L68.2637 52.6026L68.2236 53.1922L70.2957 53.3238L70.1583 55.3902Z" fill="black"/>
</svg>