<svg width="24" height="24" viewBox="0 0 24 24" fill="none" xmlns="http://www.w3.org/2000/svg">
    <path d="M22.4743 11.9976C22.4743 12.5937 22.4743 13.1674 22.4743 13.741C22.4743 15.4979 22.4698 17.2593 22.4698 19.0162C22.4698 20.41 22.4698 21.8084 22.4787 23.2022C22.4787 23.5204 22.3353 23.7535 22.0844 23.9014C21.9634 23.9731 21.7976 23.9955 21.6497 23.9955C19.9557 24 18.2573 24 16.5633 24C14.112 24 11.6561 24 9.20481 24C9.10622 24 9.01211 23.9776 8.91352 23.9731C8.8687 23.9686 8.81941 23.9776 8.77459 23.9821C8.73426 23.9866 8.69841 24 8.65808 24C6.62352 24 4.58448 24 2.54992 24C2.38859 24 2.22726 23.9866 2.07489 23.9597C1.84186 23.9193 1.66708 23.7849 1.57297 23.5653C1.52368 23.4487 1.49231 23.3098 1.49231 23.1843C1.48783 21.7815 1.49231 20.3787 1.49231 18.9758C1.49231 17.3713 1.48783 15.7668 1.48783 14.1623C1.48783 13.49 1.48783 12.8178 1.48783 12.1455C1.48783 12.1007 1.48783 12.0514 1.48783 11.9886C1.24583 11.9886 1.0128 11.9976 0.784246 11.9841C0.649804 11.9752 0.51088 11.9528 0.394364 11.8945C0.152368 11.7825 0.00896281 11.5763 0.00448141 11.3074C0 10.1824 0.00448141 9.05301 0.00448141 7.92806C0.00448141 7.53814 0 7.14822 0 6.75382C0 6.37734 0.188219 6.12636 0.546732 6.02776C0.645323 6.00087 0.752876 5.98294 0.855949 5.98294C2.59473 5.97846 4.33352 5.98294 6.07231 5.98294C6.09023 5.98294 6.11264 5.98294 6.13056 5.98294C6.13056 5.97846 6.13505 5.96949 6.13505 5.96501C5.97371 5.88434 5.81238 5.80366 5.65105 5.71403C5.4942 5.62439 5.34184 5.53475 5.18947 5.43167C5.0864 5.35996 4.99229 5.27929 4.8937 5.19861C4.73237 5.06864 4.55759 4.95211 4.41419 4.80421C4.23941 4.62494 4.08704 4.41877 3.93019 4.22157C3.72853 3.9661 3.62098 3.65237 3.51342 3.34312C3.47757 3.23556 3.47757 3.11007 3.45965 2.99354C3.41483 2.71567 3.43276 2.43331 3.49102 2.15991C3.54927 1.87756 3.64338 1.60416 3.78679 1.34422C3.93916 1.07531 4.11393 0.828803 4.34696 0.631602C4.51726 0.488182 4.70996 0.36269 4.90714 0.26409C5.49869 -0.0317129 6.13056 -0.0496403 6.76244 0.066888C7.15232 0.138598 7.53773 0.282017 7.91416 0.416473C8.14272 0.497146 8.36679 0.618156 8.57741 0.743648C8.82389 0.891549 9.0614 1.05738 9.29892 1.22321C9.46473 1.33974 9.63054 1.45626 9.78739 1.58624C9.99354 1.75655 10.1952 1.93134 10.3879 2.1151C10.5672 2.28541 10.7419 2.4602 10.9077 2.63947C11.0511 2.79634 11.1811 2.97113 11.3066 3.14144C11.441 3.31623 11.5665 3.49999 11.692 3.68375C11.7906 3.82717 11.8847 3.97955 11.9833 4.13641C12.0864 3.97507 12.1805 3.8182 12.2835 3.6703C12.4628 3.4238 12.642 3.17281 12.8347 2.93528C13.0364 2.68877 13.247 2.44675 13.4621 2.21818C13.6011 2.07476 13.7579 1.94927 13.9103 1.81929C14.0447 1.70277 14.1792 1.59072 14.3181 1.48315C14.4839 1.35318 14.6452 1.21424 14.8245 1.1022C15.0979 0.931886 15.3757 0.766057 15.6625 0.618156C15.9673 0.461291 16.2854 0.335799 16.6171 0.228235C17.222 0.0265513 17.836 -0.0361947 18.4634 0.0713698C18.7144 0.116188 18.9698 0.187898 19.1894 0.344763C19.3776 0.479219 19.5793 0.591265 19.7451 0.74813C19.8885 0.887068 20.005 1.06186 20.1126 1.23217C20.2739 1.48315 20.3904 1.76103 20.4531 2.05235C20.5024 2.28541 20.5338 2.52295 20.5383 2.76048C20.5428 3.0787 20.4576 3.39243 20.3366 3.67926C20.2156 3.95714 20.0633 4.23501 19.8706 4.46807C19.6062 4.79525 19.2835 5.0776 18.9339 5.32411C18.6427 5.53027 18.3379 5.70058 18.0287 5.86641C17.9615 5.90227 17.8943 5.94708 17.8136 5.9919C17.966 5.9919 18.1094 5.9919 18.2528 5.9919C19.8885 5.9919 21.5242 5.9919 23.1599 5.9919C23.496 5.9919 23.7559 6.13532 23.9083 6.43112C23.9666 6.54317 23.989 6.68211 23.989 6.8076C23.9979 7.30509 23.9935 7.80257 23.9935 8.30006C23.9935 8.44348 23.9666 8.59138 23.9666 8.7348C23.9666 8.90063 23.989 9.06197 23.989 9.2278C23.9935 9.8956 24.0114 10.5634 23.989 11.2312C23.9755 11.6614 23.6977 11.9976 23.2092 11.9976C23.012 11.9976 22.8148 11.9976 22.6177 11.9976C22.5639 11.9931 22.5236 11.9976 22.4743 11.9976ZM14.9903 11.9976C14.9903 15.4979 14.9903 18.9848 14.9903 22.4851C15.0396 22.4896 15.0755 22.4896 15.1158 22.4896C16.9666 22.4896 18.8219 22.4896 20.6727 22.4896C20.731 22.4896 20.7937 22.4851 20.852 22.4896C20.9551 22.4986 20.9864 22.4582 20.9864 22.3552C20.9819 21.6963 20.9819 21.0375 20.9819 20.3787C20.9819 17.7837 20.9819 15.1842 20.9819 12.5892C20.9819 12.3965 20.9819 12.2038 20.9819 11.9976C18.9788 11.9976 16.989 11.9976 14.9903 11.9976ZM3.00702 11.9931C3.00702 15.4979 3.00702 18.9893 3.00702 22.4806C5.00125 22.4806 6.98651 22.4806 8.97178 22.4806C8.97178 18.9803 8.97178 15.489 8.97178 11.9931C6.97755 11.9931 4.99677 11.9931 3.00702 11.9931ZM10.4955 7.48884C10.4955 12.4951 10.4955 17.4879 10.4955 22.4806C11.4903 22.4806 12.4718 22.4806 13.4577 22.4806C13.4577 17.4789 13.4577 12.4816 13.4577 7.48884C12.4628 7.48884 11.4858 7.48884 10.4955 7.48884ZM1.48783 10.5006C1.61331 10.5006 1.72982 10.5006 1.85082 10.5006C4.18563 10.5006 6.52045 10.5006 8.85526 10.5051C8.95833 10.5051 8.98074 10.4693 8.98074 10.3752C8.97626 9.45638 8.98074 8.54208 8.98074 7.6233C8.98074 7.58744 8.97626 7.54711 8.97626 7.51125C6.47563 7.51125 3.98845 7.51125 1.49231 7.51125C1.48783 8.5107 1.48783 9.50119 1.48783 10.5006ZM14.9858 10.4962C17.482 10.4962 19.9691 10.4962 22.4608 10.4962C22.4608 9.49671 22.4608 8.50622 22.4608 7.51125C19.9647 7.51125 17.4775 7.51125 14.9858 7.51125C14.9858 8.50622 14.9858 9.49223 14.9858 10.4962ZM13.0319 5.40926C13.0992 5.41374 13.1395 5.41374 13.1843 5.41374C13.6907 5.41374 14.2016 5.40926 14.7035 5.31514C14.8962 5.27929 15.0889 5.2524 15.2816 5.20758C15.5819 5.13587 15.8776 5.05968 16.1734 4.979C16.3571 4.9297 16.5364 4.87144 16.7201 4.80869C16.8322 4.76835 16.9487 4.72802 17.0518 4.67424C17.3072 4.53978 17.5626 4.40532 17.8136 4.26191C17.948 4.18571 18.0825 4.10952 18.1945 4.00644C18.3782 3.83613 18.562 3.66134 18.7144 3.46414C18.8309 3.31623 18.9295 3.14144 18.9832 2.95769C19.0773 2.63051 19.0012 2.31678 18.8264 2.0165C18.6516 1.71173 18.3917 1.56383 18.069 1.51005C17.9167 1.48764 17.7509 1.48764 17.5985 1.51453C17.352 1.55935 17.1145 1.63554 16.877 1.70725C16.7381 1.74758 16.6036 1.79688 16.4737 1.86411C16.2989 1.95375 16.1286 2.05683 15.9583 2.15991C15.7611 2.28093 15.5594 2.40194 15.3712 2.53639C15.2189 2.64844 15.0799 2.77393 14.941 2.9039C14.7393 3.08766 14.5332 3.27142 14.345 3.46862C14.1702 3.65237 14.0089 3.84957 13.852 4.05126C13.6997 4.24846 13.5652 4.45911 13.4263 4.66527C13.3636 4.75939 13.2963 4.85351 13.2426 4.95659C13.1664 5.10449 13.1036 5.24791 13.0319 5.40926ZM10.9346 5.40926C10.8943 5.31962 10.8674 5.24791 10.8316 5.18069C10.733 5.00589 10.6344 4.83558 10.5313 4.66527C10.4417 4.51289 10.361 4.35602 10.2535 4.21709C10.0787 3.98851 9.89046 3.7689 9.70224 3.55377C9.55884 3.39243 9.40647 3.23556 9.24962 3.09214C9.09277 2.94872 8.92696 2.81875 8.75667 2.68877C8.55949 2.54087 8.3623 2.39297 8.16064 2.25403C8.01724 2.15991 7.86487 2.07476 7.7125 1.99409C7.5198 1.89549 7.32262 1.7924 7.11647 1.71621C6.94618 1.64898 6.76692 1.61761 6.58767 1.56831C6.27845 1.48315 5.9782 1.46971 5.66898 1.56831C5.25669 1.69828 5.0864 2.02994 4.97436 2.39297C4.86233 2.74704 4.97436 3.08318 5.17602 3.38346C5.38665 3.69271 5.66002 3.94369 5.96923 4.14538C6.26949 4.34258 6.58767 4.52185 6.91481 4.66527C7.24643 4.81317 7.59598 4.92522 7.94105 5.03278C8.21442 5.11794 8.49675 5.18517 8.77908 5.24343C9.06589 5.29721 9.3527 5.33307 9.64399 5.36892C9.82772 5.39133 10.0115 5.4003 10.1997 5.40478C10.4372 5.41374 10.6792 5.40926 10.9346 5.40926Z" fill="#84754E"/>
</svg>