<svg viewBox="0 0 25 20" fill="none" xmlns="http://www.w3.org/2000/svg">
    <path d="M15.2794 3.07195C15.0552 3.01247 14.8264 2.95298 14.6021 2.89349C12.0624 2.23454 9.52274 1.57559 6.98761 0.91664C6.21426 0.715294 5.55531 0.912063 5.01076 1.4978C4.82314 1.69914 4.56689 1.7266 4.38384 1.56644C4.19623 1.4017 4.19165 1.14544 4.38384 0.93952C5.16177 0.106681 6.10901 -0.177034 7.20726 0.106681C11.1015 1.12256 14.9911 2.14302 18.8853 3.16347C19.9378 3.43804 20.9857 3.7126 22.0336 3.99174C23.2005 4.30291 24.0288 5.36913 24.0379 6.5772C24.0425 7.65714 24.0379 8.74166 24.0379 9.82161C24.0379 12.2972 24.0379 14.7683 24.0379 17.2439C24.0379 18.5618 23.1456 19.6738 21.878 19.9347C21.6675 19.9758 21.4525 19.9941 21.2374 19.9941C15.0918 19.9987 8.94616 19.9987 2.80511 19.9941C1.40484 19.9941 0.297443 19.0927 0.0457604 17.7519C0.0137281 17.578 0 17.395 0 17.2165C0.00457604 13.7112 0.00457604 10.2014 0.00457604 6.6916C0.00457604 5.08083 1.19435 3.89106 2.80969 3.89106C6.6078 3.89106 10.4013 3.89106 14.1994 3.89106C14.3093 3.89106 14.4191 3.89106 14.5289 3.89106C14.5289 3.88191 14.5289 3.87276 14.5335 3.85903C14.2132 3.81785 13.8974 3.77666 13.5771 3.74006C11.6506 3.5021 9.72408 3.26415 7.79299 3.02619C6.73135 2.89349 5.67429 2.74706 4.61265 2.64181C3.81642 2.56401 3.1712 2.89349 2.68613 3.52498C2.64953 3.57074 2.61749 3.62565 2.58089 3.67142C2.43445 3.85446 2.18735 3.89106 2.00431 3.75836C1.82126 3.62565 1.7755 3.3877 1.90363 3.18178C2.18277 2.74706 2.54428 2.40385 2.99731 2.15675C3.58761 1.83185 4.21911 1.73575 4.88721 1.81812C6.24629 1.99201 7.60995 2.15675 8.96904 2.32148C10.6164 2.52741 12.2684 2.72875 13.9157 2.93467C14.3688 2.98959 14.8172 3.0445 15.2702 3.09941C15.2748 3.09483 15.2794 3.08111 15.2794 3.07195ZM12.0258 19.1659C15.0918 19.1659 18.1577 19.1659 21.2191 19.1659C22.3951 19.1659 23.2051 18.3605 23.2051 17.1845C23.2051 13.6884 23.2051 10.1923 23.2051 6.69618C23.2051 5.54302 22.3906 4.72848 21.2374 4.72848C15.0964 4.72848 8.95988 4.72848 2.81884 4.72848C1.6611 4.72848 0.851143 5.54302 0.851143 6.69618C0.851143 10.1968 0.851143 13.6975 0.851143 17.1982C0.851143 18.3513 1.66568 19.1613 2.81884 19.1613C5.88479 19.1659 8.95531 19.1659 12.0258 19.1659Z" fill="#84754E"/>
    <path d="M8.96885 11.8946C9.42187 11.6109 9.72847 11.2403 9.88863 10.7552C10.154 9.93608 9.8566 9.0346 9.16104 8.52209C8.46548 8.01414 7.51367 8.00499 6.81353 8.50378C6.10425 9.00714 5.79308 9.90405 6.04476 10.7232C6.30559 11.5606 7.05606 12.1326 7.92093 12.1555C9.81541 12.2104 11.2523 13.0432 12.1995 14.6952C12.4329 15.1024 12.5793 15.5417 12.6709 16.0039C12.7166 16.2373 12.6159 16.4203 12.41 16.4707C12.2087 16.5164 12.0256 16.3883 11.9799 16.1549C11.8609 15.56 11.6275 15.0155 11.2614 14.535C10.4469 13.4688 9.36696 12.8968 8.02618 12.8785C6.47491 12.8556 5.47275 11.7253 5.28971 10.5996C5.03803 9.05748 6.10425 7.64806 7.68298 7.44672C9.16562 7.25452 10.5522 8.39396 10.6849 9.90862C10.7581 10.7277 10.4927 11.4324 9.93439 12.0365C9.8566 12.1189 9.78796 12.1463 9.67356 12.1051C9.44475 12.0228 9.21595 11.9678 8.96885 11.8946Z" fill="#84754E"/>
    <path d="M17.7321 15.1528C16.8215 15.1528 15.9109 15.1528 15.0002 15.1528C14.6616 15.1528 14.4465 14.8508 14.5793 14.5625C14.6616 14.384 14.8081 14.3108 15.0048 14.3108C15.769 14.3108 16.5378 14.3108 17.302 14.3108C18.3636 14.3108 19.4253 14.3108 20.4823 14.3108C20.7432 14.3108 20.9171 14.4481 20.9491 14.6677C20.9857 14.9377 20.7981 15.1482 20.5098 15.1528C19.7685 15.1574 19.0272 15.1528 18.2858 15.1528C18.1028 15.1528 17.9198 15.1528 17.7321 15.1528Z" fill="#84754E"/>
    <path d="M16.84 12.3704C16.2313 12.3704 15.6182 12.3704 15.0095 12.3704C14.7716 12.3704 14.6023 12.2514 14.5565 12.0546C14.5016 11.8304 14.6389 11.6016 14.8677 11.5513C14.9363 11.5375 15.005 11.533 15.0782 11.533C16.2588 11.533 17.4394 11.533 18.62 11.533C18.6612 11.533 18.7024 11.533 18.739 11.533C18.9861 11.5513 19.1554 11.7297 19.1509 11.9631C19.1463 12.1919 18.9678 12.3704 18.7207 12.3704C18.0892 12.3704 17.4669 12.3704 16.84 12.3704Z" fill="#84754E"/>
    <path d="M16.8626 8.74628C17.4667 8.74628 18.0753 8.74628 18.6793 8.74628C18.8257 8.74628 18.9584 8.78288 19.0545 8.89728C19.2467 9.12609 19.1369 9.47844 18.8486 9.56081C18.7937 9.57911 18.7296 9.57911 18.6702 9.57911C17.4529 9.57911 16.2403 9.57911 15.0231 9.57911C14.7576 9.57911 14.5746 9.43726 14.5517 9.21303C14.5197 8.94762 14.7027 8.7417 14.9864 8.7417C15.6134 8.74628 16.2357 8.74628 16.8626 8.74628Z" fill="#84754E"/>
    <path d="M6.79098 13.0067C6.47981 13.1577 6.14118 13.2858 5.83916 13.4734C4.84616 14.082 4.22382 14.9606 3.97214 16.1001C3.93553 16.2694 3.86689 16.4067 3.68842 16.4478C3.42301 16.5073 3.21252 16.2923 3.26285 16.0177C3.38641 15.3633 3.64266 14.7639 4.02248 14.2193C4.51211 13.5192 5.14818 12.9884 5.91696 12.6177C6.01305 12.5719 6.08169 12.5765 6.17321 12.636C6.37914 12.7779 6.59879 12.8923 6.79098 13.0067Z" fill="#84754E"/>
</svg>