<svg width="156" height="38" viewBox="0 0 156 38" fill="none" xmlns="http://www.w3.org/2000/svg">
<path fill-rule="evenodd" clip-rule="evenodd" d="M59.2576 16.0291C58.4023 20.074 57.1104 22.836 54.1881 22.836C51.3459 22.836 51.1499 20.083 52.0141 16.0291C53.1189 10.8259 54.6514 8.84798 57.1639 8.84798C59.7298 8.84798 60.3713 10.8348 59.2576 16.0291ZM61.9572 15.254C63.0531 10.0597 61.8414 6.77204 57.6004 6.77204C53.3595 6.77204 50.7401 10.0597 49.6353 15.254C48.0583 22.6846 50.0273 24.903 53.7426 24.903C57.5292 24.903 60.3802 22.7113 61.9572 15.254ZM44.5123 8.84798C46.8377 8.84798 46.9268 10.7724 46.5526 12.6524H48.8423C49.5462 9.47165 48.4503 6.77204 44.9845 6.77204C39.7189 6.77204 37.9637 11.8594 37.0728 16.0558C36.1194 20.5195 35.9323 24.903 41.1979 24.903C45.029 24.903 46.9446 21.758 47.7375 18.4347H45.421C44.8508 20.5373 44.1113 22.836 41.4474 22.836C38.329 22.836 39.015 18.8356 39.4962 16.5815C40.0218 14.1314 40.9484 8.84798 44.5123 8.84798ZM35.0325 22.6489C34.685 22.6846 34.3019 22.7113 33.9811 22.6222C33.5446 22.3727 33.7406 21.758 33.8297 21.3214L35.9234 11.4585C36.0125 11.0486 37.349 6.78095 32.2349 6.78095C28.7779 6.78095 26.6842 8.33122 26.0427 11.8951H28.2434C28.6443 9.88149 29.1611 8.85688 31.3884 8.85688C33.3664 8.85688 33.9544 9.60529 33.5446 11.5476C33.3575 12.4474 33.2773 13.1246 32.6536 13.5255C32.2883 13.7839 28.5552 15.0758 27.0228 15.6816C24.4122 16.7419 23.8064 19.2187 23.6638 19.8691C23.0045 23.0053 23.5837 24.9119 27.0228 24.9119C28.6621 24.9119 30.5153 23.6468 31.4152 22.1322C31.2281 24.4843 31.9676 24.6625 34.0613 24.5734C34.2573 24.5199 34.4444 24.4843 34.6404 24.4576L35.0325 22.6489ZM31.7181 19.3435C31.1212 22.1232 28.9205 22.836 27.9939 22.836C26.0249 22.836 25.82 21.7134 26.1853 19.9849C26.4347 18.8089 27.0762 17.5437 28.3325 17.0181C29.7669 16.3944 31.237 15.8776 32.6002 15.1738L31.7181 19.3435ZM21.4988 7.23534H19.1556L15.5027 24.4486H17.9439L20.1624 14.0155C20.8217 10.8972 23.1025 8.91034 26.1407 9.46274L26.6575 7.04824C24.136 6.84332 22.4789 7.80556 20.9732 10.0597L21.4988 7.23534ZM2.57487 24.4486L4.67753 14.6036H6.21889C7.98298 14.6036 10.6113 14.6036 12.3665 13.9264C15.1196 12.7771 16.4204 10.2646 16.9727 7.69864C17.3737 5.84545 17.2489 4.04571 16.1352 2.74491C15.0483 1.45303 12.8387 1.23029 11.039 1.23029H4.93591L0 24.4486H2.57487ZM7.01184 3.56459H9.6758C12.8209 3.50223 15.0928 4.01898 14.2999 7.77883C13.4802 11.7614 11.2083 12.2514 7.68006 12.2871H5.15865L7.01184 3.56459Z" fill="white"/>
<path fill-rule="evenodd" clip-rule="evenodd" d="M140.228 24.4486L145.164 1.2392H150.082L145.155 24.4486H140.228ZM131.113 19.9226C131.007 20.9115 131.292 21.4372 132.316 21.4372C133.332 21.4372 133.849 20.9026 134.152 19.9226L135.8 12.1802C136.049 11.0754 135.853 10.1755 134.713 10.1755C133.564 10.1755 132.993 11.0665 132.762 12.1802L131.113 19.9226ZM127.763 12.5633C128.699 8.09957 131.657 6.62058 135.461 6.62058C139.791 6.62058 141.466 8.66978 140.638 12.5633L139.15 19.6107C138.063 23.5488 135.31 25.001 131.559 25.001C128.031 25.001 125.42 23.5755 126.267 19.6107L127.763 12.5633ZM121.803 13.5522L121.839 13.2493C121.874 12.5989 122.052 11.9129 122.061 11.2714C121.999 10.5586 121.705 10.1933 120.965 10.1933C119.7 10.1933 119.273 11.1823 119.032 12.2871L117.517 19.4326C117.286 20.5284 117.402 21.455 118.667 21.455C120.502 21.455 120.761 18.7376 121.037 17.4279H125.803C125.59 18.4436 125.002 20.6086 124.529 21.5441C123.416 23.7092 121.349 24.6981 119.166 24.9119C118.685 24.9476 118.248 25.01 117.509 25.01C113.98 25.01 111.717 23.5844 112.546 19.6197L114.043 12.5722C114.987 8.10848 117.598 6.62949 121.402 6.62949C126.24 6.70077 127.719 8.80343 126.427 13.5611H121.803V13.5522ZM105.917 22.8984C104.394 24.2615 103.173 25.001 101.231 25.001C98.4421 25.001 97.1145 23.1211 97.6937 20.3592C98.5312 16.43 100.928 15.1916 103.244 14.4788C105.543 13.775 107.717 13.5433 108.109 11.6812C108.314 10.7279 107.931 9.8904 106.942 9.8904C105.142 9.8904 104.884 11.1288 104.483 12.5811H99.5647C100.269 8.25103 103.521 6.60276 107.485 6.60276C112.341 6.60276 113.793 8.08175 112.982 11.8951L110.728 22.5064C110.586 23.1568 110.639 23.8161 110.719 24.4308H105.926L105.917 22.8984ZM107.191 16.0291C106.095 16.5548 105.169 16.822 104.447 17.2943C103.734 17.7308 103.075 18.3456 102.826 19.5217C102.594 20.6086 103.084 21.3838 104.26 21.3838C105.712 21.3838 106.354 19.8691 106.621 18.7554L107.191 16.0291ZM91.6262 24.4486L91.9826 22.444C90.7353 24.1012 89.0603 25.01 87.608 25.01C84.0442 24.8852 84.0531 21.5174 84.6768 18.5683L85.9508 12.5633C86.521 9.83694 88.1693 6.62058 91.4213 6.62058C92.7221 6.62058 93.8714 7.18188 94.6288 8.69651L96.2147 1.23029H101.142L96.2147 24.4397H91.6262V24.4486ZM89.6839 18.1941C89.4612 19.2187 89.087 20.9828 90.5125 20.9828C91.8401 20.9828 92.3123 19.6553 92.6687 17.9714L93.5329 13.8908C93.8447 12.4029 94.014 10.6121 92.8023 10.6388C91.2253 10.6388 90.8689 12.59 90.6284 13.7037L89.6839 18.1941ZM81.0149 5.40888L81.897 1.23029H86.824L85.933 5.40888H81.0149ZM76.9611 24.4486L80.6496 7.11952H85.5677L81.8881 24.4486H76.9611ZM67.214 20.2701C70.8224 20.5195 71.1698 19.0316 71.7222 15.94L73.3349 8.34904C73.8873 5.62271 73.0141 5.47125 70.368 5.40888L67.214 20.2701ZM60.8882 24.4486L65.8152 1.2392H71.7311C73.7091 1.2392 76.0879 1.30156 77.6293 2.32616C79.4736 3.5646 79.3399 5.82763 78.8588 8.04611L76.676 18.3456C76.1503 20.671 75.0811 22.3727 73.2903 23.3617C71.6599 24.2883 69.9047 24.4397 68.2297 24.4397H60.8882V24.4486Z" fill="white"/>
<path d="M153.833 3.43095C153.129 3.43095 152.559 2.86074 152.559 2.15688C152.559 1.45302 153.129 0.882812 153.833 0.882812C154.537 0.882812 155.107 1.45302 155.107 2.15688C155.116 2.85183 154.537 3.43095 153.833 3.43095ZM153.833 1.1501C153.28 1.1501 152.835 1.59558 152.835 2.14797C152.835 2.70037 153.28 3.14585 153.833 3.14585C154.385 3.14585 154.831 2.70037 154.831 2.14797C154.831 1.60449 154.385 1.1501 153.833 1.1501Z" fill="white"/>
<path d="M154.091 2.71818L153.86 2.38853C153.842 2.38853 153.833 2.38853 153.815 2.38853H153.557V2.71818H153.343V1.57776H153.806C154.109 1.57776 154.287 1.72922 154.287 1.97869C154.287 2.14797 154.198 2.28162 154.047 2.33507L154.305 2.70928H154.091V2.71818ZM153.806 1.76486H153.557V2.21925H153.806C153.993 2.21925 154.091 2.13906 154.091 1.9876C154.091 1.83614 153.993 1.76486 153.806 1.76486Z" fill="white"/>
<path d="M64.7904 35.6391C63.7479 35.6391 62.857 35.2827 62.1175 34.57C61.378 33.8572 61.0127 33.0019 61.0127 31.9862C61.0127 30.9705 61.378 30.1063 62.0997 29.4024C62.8302 28.6896 63.7034 28.3333 64.7369 28.3333C65.5031 28.3333 66.1981 28.5293 66.8217 28.9302C67.4454 29.3311 67.8998 29.8657 68.176 30.5339H66.6079C66.4119 30.231 66.1535 29.9904 65.815 29.8122C65.4764 29.6341 65.12 29.545 64.7458 29.545C64.0687 29.545 63.4985 29.7855 63.0263 30.2577C62.554 30.7299 62.3224 31.3091 62.3224 31.9951C62.3224 32.6722 62.563 33.2513 63.0352 33.7235C63.5074 34.1958 64.0865 34.4363 64.7636 34.4363C65.4408 34.4363 66.0021 34.2047 66.4475 33.7325C66.6257 33.5454 66.7683 33.3404 66.8752 33.1266H63.9439V31.9149H68.5146V31.9862C68.5146 32.993 68.1493 33.8572 67.4276 34.57C66.7059 35.2827 65.8328 35.6391 64.7904 35.6391Z" fill="white"/>
<path d="M69.2719 30.231H69.8599H70.4479V30.6319L70.5103 30.5517C70.7419 30.2221 71.1072 30.0617 71.5973 30.0617H71.6774V31.2645C71.3211 31.2912 71.0538 31.3803 70.8578 31.5407C70.635 31.7367 70.5281 32.0307 70.5281 32.4495V35.4965H69.8955H69.2629V30.231H69.2719Z" fill="white"/>
<path d="M73.2547 33.0464C73.2547 33.5275 73.3438 33.8928 73.5219 34.1512C73.7001 34.4006 73.9674 34.5254 74.306 34.5254C74.6713 34.5254 74.9475 34.4006 75.1346 34.1423C75.3217 33.8928 75.4108 33.5097 75.4108 33.0018V30.231H76.0434H76.6759V35.4965H76.0879H75.4999V35.0332C75.0989 35.4609 74.6089 35.6747 74.0298 35.6747C73.4061 35.6747 72.9072 35.4609 72.5419 35.0421C72.1766 34.6234 71.9895 34.0532 71.9895 33.3315V30.231H72.6221H73.2547V33.0464Z" fill="white"/>
<path d="M77.4688 30.231H78.0479H78.6359V30.7834C79.1348 30.2933 79.714 30.0439 80.4 30.0528C81.1217 30.0528 81.7364 30.329 82.2443 30.8725C82.7521 31.4249 83.0016 32.0842 83.0016 32.8682C83.0016 33.6433 82.7521 34.3116 82.2443 34.855C81.7364 35.3985 81.1217 35.6747 80.3911 35.6747C79.7674 35.6747 79.215 35.4609 78.7339 35.0511V37.2606H78.1013H77.4688V30.231ZM80.1951 34.5343C80.6317 34.5343 80.9969 34.3739 81.291 34.0532C81.585 33.7324 81.7364 33.3404 81.7364 32.8682C81.7364 32.396 81.5939 31.9951 81.2999 31.6743C80.9969 31.3625 80.6317 31.2021 80.1951 31.2021C79.7585 31.2021 79.3932 31.3625 79.0992 31.6832C78.8052 32.004 78.6626 32.396 78.6626 32.8682C78.6626 33.3404 78.8052 33.7324 79.0992 34.0532C79.3932 34.3739 79.7585 34.5343 80.1951 34.5343Z" fill="white"/>
<path d="M84.16 34.8551C83.6165 34.3116 83.3403 33.6434 83.3403 32.8682C83.3403 32.0931 83.6165 31.4249 84.16 30.8814C84.7035 30.329 85.3628 30.0617 86.1379 30.0617C86.9131 30.0617 87.5813 30.3379 88.1248 30.8814C88.6683 31.4338 88.9445 32.0931 88.9445 32.8682C88.9445 33.6434 88.6683 34.3116 88.1248 34.8551C87.5813 35.3985 86.9131 35.6747 86.1379 35.6747C85.3628 35.6747 84.7035 35.4075 84.16 34.8551ZM87.2338 34.0532C87.5278 33.7414 87.6704 33.3493 87.6704 32.8771C87.6704 32.4049 87.5189 32.0129 87.2338 31.6922C86.9398 31.3714 86.5745 31.211 86.1379 31.211C85.7014 31.211 85.345 31.3714 85.051 31.6922C84.757 32.0129 84.6144 32.4049 84.6144 32.8771C84.6144 33.3493 84.757 33.7414 85.051 34.0532C85.345 34.365 85.7103 34.5254 86.1379 34.5254C86.5745 34.5254 86.9398 34.365 87.2338 34.0532Z" fill="white"/>
<path d="M104.527 28.4758H105.169H105.819V35.5054H105.169H104.527V28.4758Z" fill="white"/>
<path d="M106.826 30.2309H107.414H108.002V30.6853C108.412 30.2666 108.902 30.0527 109.463 30.0527C110.087 30.0527 110.586 30.2666 110.951 30.6853C111.316 31.1041 111.503 31.6743 111.503 32.396V35.4965H110.871H110.238V32.6811C110.238 32.1999 110.149 31.8347 109.971 31.5852C109.793 31.3357 109.534 31.211 109.187 31.211C108.821 31.211 108.545 31.3357 108.367 31.5941C108.189 31.8436 108.091 32.2267 108.091 32.7345V35.5054H107.458H106.826V30.2309Z" fill="white"/>
<path d="M117.589 33.7859C117.41 34.365 117.09 34.8194 116.608 35.1669C116.127 35.5055 115.584 35.6836 114.96 35.6836C114.185 35.6836 113.526 35.4075 112.991 34.864C112.448 34.3205 112.18 33.6523 112.18 32.8771C112.18 32.102 112.448 31.4338 112.991 30.8814C113.535 30.329 114.194 30.0617 114.96 30.0617C115.584 30.0617 116.145 30.2399 116.626 30.5874C117.107 30.9348 117.437 31.3981 117.615 31.9773H116.208C116.083 31.7278 115.922 31.5407 115.709 31.4071C115.495 31.2734 115.245 31.211 114.951 31.211C114.533 31.211 114.176 31.3714 113.891 31.6832C113.597 31.9951 113.454 32.3782 113.454 32.8326C113.454 33.3137 113.606 33.7146 113.9 34.0354C114.203 34.3561 114.568 34.5165 115.014 34.5165C115.254 34.5165 115.486 34.4541 115.7 34.3205C115.914 34.1868 116.074 34.0087 116.19 33.7859H117.589Z" fill="white"/>
<path d="M118.221 28.4758H118.854H119.486V30.6052C119.878 30.231 120.333 30.0528 120.858 30.0617C121.482 30.0617 121.972 30.2755 122.337 30.6943C122.703 31.113 122.89 31.6832 122.89 32.4049V35.5143H122.257H121.625V32.69C121.625 32.2089 121.536 31.8436 121.357 31.5941C121.179 31.3447 120.921 31.2199 120.573 31.2199C120.208 31.2199 119.932 31.3447 119.754 31.603C119.575 31.8525 119.486 32.2356 119.486 32.7435V35.5143H118.854H118.221V28.4758Z" fill="white"/>
<path d="M128.984 33.7859C128.806 34.365 128.485 34.8194 128.004 35.1669C127.523 35.5055 126.979 35.6836 126.356 35.6836C125.581 35.6836 124.921 35.4075 124.387 34.864C123.843 34.3205 123.576 33.6523 123.576 32.8771C123.576 32.102 123.843 31.4338 124.387 30.8814C124.93 30.329 125.59 30.0617 126.356 30.0617C126.979 30.0617 127.541 30.2399 128.022 30.5874C128.503 30.9348 128.833 31.3981 129.011 31.9773H127.603C127.478 31.7278 127.318 31.5407 127.104 31.4071C126.89 31.2734 126.641 31.211 126.347 31.211C125.928 31.211 125.572 31.3714 125.287 31.6832C124.993 31.9951 124.85 32.3782 124.85 32.8326C124.85 33.3137 125.001 33.7146 125.295 34.0354C125.598 34.3561 125.964 34.5165 126.409 34.5165C126.65 34.5165 126.881 34.4541 127.095 34.3205C127.309 34.1868 127.469 34.0087 127.585 33.7859H128.984Z" fill="white"/>
<path d="M131.978 35.6747C131.256 35.6747 130.641 35.3985 130.124 34.8551C129.617 34.3116 129.358 33.6434 129.358 32.8682C129.358 32.0931 129.617 31.4249 130.124 30.8814C130.632 30.329 131.256 30.0617 131.978 30.0617C132.681 30.0617 133.278 30.3112 133.759 30.819V30.2399H134.927V35.5055H134.348H133.759V34.9263C133.269 35.4253 132.673 35.6747 131.978 35.6747ZM132.182 31.2021C131.737 31.2021 131.372 31.3625 131.078 31.6832C130.784 32.004 130.632 32.396 130.632 32.8682C130.632 33.3404 130.784 33.7325 131.078 34.0532C131.372 34.3739 131.746 34.5343 132.182 34.5343C132.628 34.5343 132.993 34.3739 133.296 34.0532C133.59 33.7325 133.742 33.3404 133.742 32.8682C133.742 32.396 133.59 32.004 133.296 31.6832C132.993 31.3625 132.628 31.2021 132.182 31.2021Z" fill="white"/>
<path d="M135.63 30.231H136.21H136.798V30.7834C137.296 30.2933 137.876 30.0439 138.562 30.0528C139.283 30.0528 139.898 30.329 140.406 30.8725C140.914 31.4249 141.163 32.0842 141.163 32.8682C141.163 33.6433 140.914 34.3116 140.406 34.855C139.898 35.3985 139.283 35.6747 138.553 35.6747C137.929 35.6747 137.377 35.4609 136.896 35.0511V37.2606H136.263H135.63V30.231ZM138.348 34.5343C138.784 34.5343 139.15 34.3739 139.444 34.0532C139.738 33.7324 139.889 33.3404 139.889 32.8682C139.889 32.396 139.747 31.9951 139.453 31.6743C139.159 31.3536 138.793 31.1932 138.357 31.1932C137.92 31.1932 137.555 31.3536 137.261 31.6743C136.967 31.9951 136.824 32.3871 136.824 32.8593C136.824 33.3315 136.967 33.7235 137.261 34.0443C137.555 34.3739 137.92 34.5343 138.348 34.5343Z" fill="white"/>
<path d="M144.299 35.6747C143.542 35.6747 142.892 35.3985 142.357 34.855C141.822 34.3115 141.555 33.6433 141.555 32.8682C141.555 32.093 141.822 31.4248 142.357 30.8724C142.892 30.32 143.542 30.0527 144.299 30.0527C145.066 30.0527 145.716 30.3289 146.251 30.8724C146.785 31.4248 147.052 32.0841 147.052 32.8682C147.052 33.0553 147.035 33.2424 147.008 33.4206H142.901C142.972 33.6522 143.088 33.8571 143.257 34.0442C143.542 34.3561 143.907 34.5164 144.335 34.5164C144.602 34.5164 144.843 34.4541 145.066 34.3293C145.288 34.2046 145.449 34.0442 145.556 33.8304H146.892C146.723 34.3917 146.402 34.8372 145.93 35.1668C145.458 35.5143 144.914 35.6747 144.299 35.6747ZM145.734 32.4138C145.671 32.1376 145.547 31.897 145.36 31.6832C145.074 31.3624 144.727 31.2021 144.299 31.2021C143.881 31.2021 143.524 31.3624 143.239 31.6832C143.052 31.897 142.927 32.1376 142.856 32.4138H145.734Z" fill="white"/>
<path d="M98.7627 29.2954L97.3371 29.7766C97.3371 29.7766 96.8649 29.046 95.7156 28.3243C95.7156 28.3243 97.3728 28.3065 98.7627 29.2954Z" fill="white"/>
<path d="M96.6332 37.3764C96.5085 37.3764 96.4194 37.3675 96.3481 37.3675H96.2858C93.7465 37.0557 91.8488 34.9352 91.8577 32.4316C91.8577 29.6964 94.0851 27.469 96.8203 27.469C99.5556 27.469 101.783 29.6964 101.783 32.4316C101.783 33.4473 101.462 34.4452 100.865 35.3183H100.856C100.723 35.55 100.215 36.04 99.912 36.2806C99.6269 36.5033 99.3239 36.6993 98.9408 36.8864C98.5221 37.0913 98.0588 37.2339 97.5866 37.3052C97.1856 37.3586 96.856 37.3764 96.6332 37.3764ZM96.8203 27.7808C94.2544 27.7808 92.1695 29.8657 92.1695 32.4316C92.1695 34.7838 93.9514 36.7706 96.3125 37.0646H96.3659C96.5352 37.0735 96.9451 37.0913 97.542 36.9933C97.9786 36.9221 98.4152 36.7884 98.8072 36.6013C99.1636 36.4231 99.4576 36.2449 99.7159 36.04C100.277 35.5945 100.58 35.1847 100.607 35.158C100.607 35.158 100.607 35.158 100.607 35.1491C101.177 34.3294 101.471 33.385 101.471 32.4316C101.48 29.8657 99.3863 27.7808 96.8203 27.7808Z" fill="white"/>
<path d="M100.705 35.2114C100.705 35.2114 100.42 35.6747 99.8138 36.1558C99.5377 36.3786 99.2436 36.5568 98.8694 36.7439C98.415 36.9666 97.9607 37.0913 97.5597 37.1537C96.8559 37.2606 96.3391 37.1894 96.3391 37.1894C96.3391 37.1894 98.4329 35.7015 98.4329 32.9751C98.4418 32.3247 98.219 31.1754 97.8092 30.5428L99.5109 29.9637C99.5109 29.9637 100.58 31.0863 100.874 32.8147C100.874 32.8058 101.097 34.1779 100.705 35.2114Z" fill="white"/>
</svg>
