<svg width="19" height="27" viewBox="0 0 20 28" fill="none" xmlns="http://www.w3.org/2000/svg">
    <path d="M10.3642 0.965942C5.16996 0.965942 0.943359 5.19254 0.943359 10.3868C0.943359 12.1419 1.43013 13.8555 2.35025 15.3415L9.82793 27.3941C9.9704 27.6256 10.2237 27.7661 10.4948 27.7661C10.4967 27.7661 10.4987 27.7661 10.5007 27.7661C10.7738 27.7641 11.0271 27.6197 11.1675 27.3842L18.4553 15.2149C19.3239 13.7605 19.785 12.0905 19.785 10.3887C19.787 5.19254 15.5604 0.965942 10.3642 0.965942ZM17.1097 14.4076L10.4829 25.4707L3.68392 14.5144C2.91815 13.2777 2.50261 11.851 2.50261 10.3868C2.50261 6.05726 6.03467 2.52519 10.3642 2.52519C14.6937 2.52519 18.2198 6.05726 18.2198 10.3868C18.2218 11.8055 17.8339 13.1966 17.1097 14.4076Z" fill="black"/>
    <path d="M10.3637 5.67529C7.76564 5.67529 5.65234 7.78859 5.65234 10.3867C5.65234 12.967 7.73201 15.0981 10.3637 15.0981C13.0271 15.0981 15.0751 12.9393 15.0751 10.3867C15.0751 7.78859 12.9618 5.67529 10.3637 5.67529ZM10.3637 13.5369C8.62244 13.5369 7.21357 12.122 7.21357 10.3867C7.21357 8.65528 8.63233 7.23652 10.3637 7.23652C12.0951 7.23652 13.5099 8.65528 13.5099 10.3867C13.5099 12.0983 12.1327 13.5369 10.3637 13.5369Z" fill="black"/>
</svg>